<svg width="128" height="128" viewBox="0 0 128 128" fill="none" xmlns="http://www.w3.org/2000/svg">
<g clip-path="url(#clip0_3460_518)">
<path d="M0 15.36C0 6.8769 6.8769 0 15.36 0H112.64C121.123 0 128 6.8769 128 15.36V112.64C128 121.123 121.123 128 112.64 128H15.36C6.8769 128 0 121.123 0 112.64V15.36Z" fill="#0891B2"/>
<mask id="mask0_3460_518" style="mask-type:luminance" maskUnits="userSpaceOnUse" x="23" y="23" width="82" height="82">
<path d="M104.96 23.04H23.04V104.96H104.96V23.04Z" fill="white"/>
</mask>
<g mask="url(#mask0_3460_518)">
<path d="M64 104.951L23.04 63.9908L64 23.04L104.96 63.9908L64 104.951ZM40.2816 63.8997L64 87.5635L87.6637 63.8997L64 40.1813L40.2816 63.8997Z" fill="white"/>
</g>
</g>
<defs>
<clipPath id="clip0_3460_518">
<rect width="128" height="128" fill="white"/>
</clipPath>
</defs>
</svg>
