<svg width="128" height="128" viewBox="0 0 128 128" fill="none" xmlns="http://www.w3.org/2000/svg">
<path d="M6 0.5H122C125.038 0.5 127.5 2.96243 127.5 6V122C127.5 125.038 125.038 127.5 122 127.5H6C2.96243 127.5 0.5 125.038 0.5 122V6C0.5 2.96243 2.96243 0.5 6 0.5Z" fill="#F9FAFB"/>
<path d="M6 0.5H122C125.038 0.5 127.5 2.96243 127.5 6V122C127.5 125.038 125.038 127.5 122 127.5H6C2.96243 127.5 0.5 125.038 0.5 122V6C0.5 2.96243 2.96243 0.5 6 0.5Z" stroke="#E5E7EB"/>
<path d="M81.4492 33.4175C87.2741 33.511 92.3309 35.0854 96.4678 38.1538C100.503 41.1579 102.66 45.3461 103.042 50.9478H92.9125C92.4912 47.5067 90.7653 44.9952 87.777 43.4822C86.0409 42.6051 83.8704 42.1768 81.4507 42.0467V33.4175H81.4492Z" fill="#139FD5"/>
<path d="M46.3038 43.1021C41.8054 43.1021 38.4687 44.5727 36.1058 47.6075C34.2604 49.9347 33.3333 52.8832 33.3333 56.3639V88.7436H23.0391V56.035C23.0391 49.1366 25.2941 43.5523 29.7357 39.4153C34.1088 35.2871 39.524 33.28 46.3052 33.28C53.1461 33.28 58.6212 35.3076 63.0395 39.4987C67.3702 43.6839 69.5699 49.255 69.5699 56.035V67.3043H59.2859V56.3639C59.2859 52.8832 58.3516 49.9347 56.5134 47.6075C54.1447 44.5727 50.808 43.1021 46.3038 43.1021Z" fill="#139FD5"/>
<path d="M99.0315 87.5741C95.0564 90.9772 89.3291 92.7022 81.9897 92.7022C74.4739 92.7022 69.662 90.9919 65.4143 87.6282C61.4174 84.4794 59.2993 80.1333 59.1055 74.6938H69.2349C69.662 77.1687 70.4448 79.1086 71.5468 80.4242C73.745 83.0395 76.3178 84.3697 81.5057 84.3697C84.5523 84.3697 87.0624 84.0247 88.9939 83.3596C92.8538 82.0118 94.8188 79.436 94.8188 75.7215C94.8188 73.4688 93.8159 71.7015 91.8349 70.4618C90.0128 69.3713 87.2622 68.4284 83.4168 67.6039L81.4431 67.1668H81.4489V57.2424L90.1921 59.3065C94.5681 60.343 97.8785 61.7303 100.023 63.4231C103.348 66.0558 104.96 69.7704 104.96 74.7976C104.958 79.9053 102.966 84.1987 99.0315 87.5741Z" fill="#139FD5"/>
</svg>
