<svg width="128" height="128" viewBox="0 0 128 128" fill="none" xmlns="http://www.w3.org/2000/svg">
<g clip-path="url(#clip0_3455_676)">
<path d="M15.36 1.28H112.64C120.416 1.28 126.72 7.58382 126.72 15.36V112.64C126.72 120.416 120.416 126.72 112.64 126.72H15.36C7.58385 126.72 1.28003 120.416 1.28003 112.64V15.36C1.28003 7.58382 7.58385 1.28 15.36 1.28Z" fill="#F9FAFB"/>
<path d="M15.36 1.28H112.64C120.416 1.28 126.72 7.58382 126.72 15.36V112.64C126.72 120.416 120.416 126.72 112.64 126.72H15.36C7.58385 126.72 1.28003 120.416 1.28003 112.64V15.36C1.28003 7.58382 7.58385 1.28 15.36 1.28Z" stroke="#D1D5DB"/>
<path d="M81.4482 33.4175C87.273 33.5112 92.3298 35.0856 96.4667 38.1537C100.502 41.1579 102.659 45.3461 103.041 50.9478H92.9114C92.4903 47.5067 90.7643 44.9953 87.776 43.4824C86.0399 42.6051 83.8695 42.1768 81.4495 42.0467L81.4482 33.4175Z" fill="#139FD5"/>
<path d="M46.3048 43.102C41.8064 43.102 38.4697 44.5727 36.1068 47.6076C34.2613 49.9346 33.3343 52.8832 33.3343 56.3638V88.7434H23.04V56.0351C23.04 49.1366 25.2951 43.5523 29.7367 39.4153C34.1097 35.287 39.5249 33.28 46.3061 33.28C53.1472 33.28 58.6222 35.3075 63.0406 39.4988C67.3713 43.6838 69.5709 49.2549 69.5709 56.0351V67.3042H59.2868V56.3638C59.2868 52.8832 58.3524 49.9346 56.5143 47.6076C54.1456 44.5727 50.8091 43.102 46.3048 43.102Z" fill="#139FD5"/>
<path d="M99.0315 87.574C95.0566 90.9773 89.3293 92.7022 81.9898 92.7022C74.4739 92.7022 69.6621 90.9919 65.4143 87.6283C61.4174 84.4795 59.2995 80.1334 59.1055 74.6939H69.2351C69.6621 77.1689 70.445 79.1086 71.5468 80.4242C73.7451 83.0395 76.3179 84.3699 81.5057 84.3699C84.5524 84.3699 87.0625 84.0248 88.994 83.3597C92.854 82.0119 94.8187 79.436 94.8187 75.7215C94.8187 73.4689 93.816 71.7015 91.8351 70.4619C90.0129 69.3714 87.2621 68.4285 83.4168 67.604L81.4433 67.167H81.4489V57.2426L90.1923 59.3065C94.5681 60.343 97.8785 61.7303 100.023 63.4232C103.348 66.0559 104.96 69.7705 104.96 74.7976C104.959 79.9053 102.966 84.1986 99.0315 87.574Z" fill="#139FD5"/>
</g>
<defs>
<clipPath id="clip0_3455_676">
<rect width="128" height="128" fill="white"/>
</clipPath>
</defs>
</svg>
