<svg width="128" height="128" viewBox="0 0 128 128" fill="none" xmlns="http://www.w3.org/2000/svg">
<path d="M0 6C0 2.68629 2.68629 0 6 0H122C125.314 0 128 2.68629 128 6V122C128 125.314 125.314 128 122 128H6C2.68629 128 0 125.314 0 122V6Z" fill="#139FD5"/>
<path d="M81.4482 33.4175C87.2732 33.5111 92.3299 35.0854 96.4668 38.1538C100.502 41.1579 102.659 45.3461 103.041 50.9478H92.9115C92.4902 47.5067 90.7643 44.9952 87.7761 43.4822C86.04 42.6051 83.8695 42.1768 81.4497 42.0467V33.4175H81.4482Z" fill="white"/>
<path d="M46.3048 43.1021C41.8063 43.1021 38.4697 44.5727 36.1068 47.6074C34.2613 49.9347 33.3342 52.8832 33.3342 56.3638V88.7435H23.04V56.035C23.04 49.1365 25.2951 43.5523 29.7367 39.4153C34.1097 35.2871 39.525 33.28 46.3062 33.28C53.1471 33.28 58.6222 35.3076 63.0404 39.4986C67.3712 43.6839 69.5709 49.255 69.5709 56.035V67.3042H59.2869V56.3638C59.2869 52.8832 58.3525 49.9347 56.5144 47.6074C54.1456 44.5727 50.809 43.1021 46.3048 43.1021Z" fill="white"/>
<path d="M99.0315 87.5741C95.0564 90.9773 89.3291 92.7022 81.9897 92.7022C74.4739 92.7022 69.662 90.9919 65.4143 87.6282C61.4174 84.4794 59.2993 80.1333 59.1055 74.6939H69.2349C69.662 77.1687 70.4448 79.1086 71.5468 80.4243C73.745 83.0395 76.3178 84.3698 81.5057 84.3698C84.5523 84.3698 87.0624 84.0248 88.9939 83.3596C92.8538 82.0118 94.8188 79.4361 94.8188 75.7215C94.8188 73.4688 93.8159 71.7015 91.8349 70.4619C90.0128 69.3713 87.2622 68.4284 83.4168 67.6039L81.4431 67.1669H81.4489V57.2425L90.1921 59.3066C94.5681 60.343 97.8785 61.7303 100.023 63.4231C103.348 66.0559 104.96 69.7704 104.96 74.7977C104.958 79.9053 102.966 84.1987 99.0315 87.5741Z" fill="white"/>
</svg>
