<svg width="1000" height="176" viewBox="0 0 1000 176" fill="none" xmlns="http://www.w3.org/2000/svg">
<path d="M300.215 20.5056C300.215 37.3883 283.659 37.3883 283.659 37.3883V0H300.215V20.5056Z" fill="white"/>
<path d="M489.49 91.5626C489.49 74.4625 485.46 60.937 477.544 51.3243C469.46 41.5183 458.141 36.567 443.854 36.567C429.568 36.567 417.646 41.7357 408.886 51.8798C400.608 61.4684 396.409 73.6655 396.409 88.1087C396.409 102.552 400.222 115.208 407.751 124.193C416.053 134.023 428.216 138.998 443.879 138.998C456.211 138.998 466.322 135.834 473.948 129.531C480.44 124.144 485.363 116.343 488.573 106.344L489.49 103.47H471.825L471.39 105.185C469.846 111.416 466.66 116.15 461.689 119.628C456.742 123.058 450.732 124.797 443.879 124.797C433.96 124.797 426.43 121.729 420.952 115.401C416.174 109.919 413.592 102.649 413.254 93.7846H489.538V91.5626H489.49ZM443.854 50.7446C453.122 50.7446 460.144 53.812 465.357 60.14C469.749 65.4294 472.163 72.2646 472.525 80.4524H413.495C414.895 72.3612 417.887 65.5985 422.473 60.3091C428.047 53.8845 435.022 50.7688 443.83 50.7688H443.854V50.7446Z" fill="white"/>
<path d="M536.815 53.1841H558.559V37.1468H535.608V26.4955C535.608 9.58862 519.077 9.58862 519.077 9.58862V37.1468H503.198V53.1841H519.077V100.499C519.077 112.165 522.89 121.633 530.395 128.613C537.804 135.593 546.999 138.998 558.535 138.998V123.299C550.595 123.299 544.73 120.691 540.531 115.353C537.273 111.223 535.632 106.054 535.632 99.9436V53.2083H536.839L536.815 53.1841Z" fill="white"/>
<path d="M769.506 91.5626C769.506 74.4625 765.499 60.937 757.56 51.3243C749.475 41.5183 738.157 36.567 723.894 36.567C709.632 36.567 697.662 41.7357 688.901 51.8798C680.624 61.4684 676.424 73.6655 676.424 88.1087C676.424 102.552 680.237 115.208 687.743 124.193C696.045 134.023 708.208 138.998 723.894 138.998C736.202 138.998 746.338 135.834 753.964 129.531C760.456 124.144 765.379 116.343 768.588 106.344L769.53 103.47H751.84L751.43 105.185C749.861 111.416 746.676 116.15 741.704 119.628C736.757 123.058 730.748 124.797 723.894 124.797C713.951 124.797 706.446 121.729 700.944 115.401C696.214 109.919 693.607 102.649 693.221 93.7846H769.506V91.5626ZM723.87 50.7446C733.137 50.7446 740.136 53.812 745.348 60.14C749.765 65.4294 752.178 72.2646 752.516 80.4524H693.511C694.91 72.3612 697.903 65.5985 702.464 60.3091C708.039 53.8845 715.037 50.7688 723.87 50.7688V50.7446Z" fill="white"/>
<path d="M339.648 52.2904C347.588 52.2904 353.5 54.8747 357.7 60.2366C360.933 64.3426 362.574 69.5354 362.574 75.646V122.116C362.574 139.023 379.106 139.023 379.106 139.023V75.1147C379.106 63.5939 375.389 54.1985 368.077 47.1459C360.547 40.045 351.28 36.6154 339.648 36.6154C328.016 36.6154 318.942 39.9967 311.533 47.001C304.004 53.9811 300.215 63.4489 300.215 75.1147V139.023H316.746V75.6702C316.746 69.5596 318.411 64.3909 321.669 60.2608C325.844 54.923 331.732 52.3146 339.672 52.3146H339.648V52.2904Z" fill="white"/>
<path d="M648.068 47.0976C640.563 39.9967 631.296 36.5671 619.664 36.5671C610.686 36.5671 603.157 38.6683 596.737 42.8709V5.41016H580.206V103.47H596.737V75.6219C596.737 69.5113 598.378 64.3426 601.636 60.2125C605.835 54.8748 611.7 52.2663 619.639 52.2663C627.579 52.2663 633.492 54.8506 637.667 60.2125C640.901 64.3184 642.542 69.5113 642.542 75.6219V122.236C642.542 139.119 659.097 139.119 659.097 139.119V75.0664C659.097 63.5456 655.356 54.1502 648.02 47.0976H648.068Z" fill="white"/>
<path d="M859.811 89.4371C856.095 86.563 850.351 84.2202 842.725 82.457L824.843 78.3269C817.723 76.7087 813.186 75.3078 810.894 74.0277C807.129 72.0231 805.174 68.9074 805.174 64.7773C805.174 60.4057 807.105 56.9277 810.87 54.4883C814.465 52.1938 819.268 51.0103 825.18 51.0103C830.441 51.0103 834.954 51.9039 838.55 53.6671C843.763 56.2272 846.731 60.5023 847.455 66.3231H865.048C864.397 56.8311 860.656 49.7543 853.633 44.6581C846.224 39.2962 837.175 36.5428 826.653 36.5428C814.031 36.5428 804.402 39.417 797.982 45.0687C791.611 50.6721 788.378 57.7972 788.378 66.2747C788.378 75.646 791.539 82.3121 798.055 86.6837C801.94 89.3164 809.301 91.8041 819.919 94.1227L830.972 96.4897C837.633 97.8905 842.436 99.4846 845.573 101.344C849 103.422 850.737 106.392 850.737 110.233C850.737 116.536 847.359 120.884 840.626 123.178C837.271 124.314 832.927 124.869 827.642 124.869C818.64 124.869 812.149 122.599 808.336 118.203C806.429 115.957 805.054 112.696 804.305 108.494H786.737C787.074 117.696 790.767 125.062 797.693 130.4C805.078 136.1 815.455 138.998 828.463 138.998C841.47 138.998 851.172 136.076 858.05 130.303C864.903 124.579 868.379 117.333 868.379 108.663C868.379 99.9918 865.555 93.8812 859.787 89.4371H859.811Z" fill="white"/>
<path d="M991.384 89.4371C987.668 86.563 981.924 84.2202 974.298 82.457L956.416 78.3269C949.296 76.7087 944.759 75.3078 942.467 74.0277C938.702 72.0231 936.747 68.9074 936.747 64.7773C936.747 60.4057 938.678 56.9277 942.443 54.4883C946.039 52.1938 950.841 51.0103 956.754 51.0103C962.015 51.0103 966.527 51.9039 970.123 53.6671C975.336 56.2272 978.304 60.5023 979.052 66.3231H996.645C995.97 56.8311 992.253 49.7543 985.231 44.6581C977.822 39.2962 968.772 36.5428 958.25 36.5428C945.628 36.5428 935.999 39.417 929.58 45.0687C923.209 50.6721 919.999 57.7972 919.999 66.2747C919.999 75.646 923.16 82.3121 929.676 86.6837C933.562 89.3164 940.946 91.8041 951.541 94.1227L962.57 96.4897C969.23 97.8905 974.033 99.4846 977.194 101.344C980.621 103.422 982.359 106.392 982.359 110.233C982.359 116.536 978.98 120.884 972.247 123.178C968.917 124.314 964.549 124.869 959.263 124.869C950.262 124.869 943.794 122.599 939.957 118.203C938.05 115.957 936.699 112.696 935.951 108.494H918.358C918.696 117.696 922.388 125.062 929.314 130.4C936.699 136.1 947.076 138.998 960.084 138.998C973.092 138.998 982.793 136.076 989.671 130.303C996.525 124.579 1000 117.333 1000 108.663C1000 99.9918 997.176 93.8812 991.409 89.4371H991.384Z" fill="white"/>
<path d="M884.523 36.3738C884.523 36.3738 901.055 36.3738 901.055 53.2806V138.998H884.523V36.3738Z" fill="white"/>
<path d="M902.02 161.533C902.02 166.653 897.869 170.783 892.777 170.783C887.685 170.783 883.534 166.653 883.534 161.533C883.534 156.412 887.661 152.282 892.777 152.282C897.893 152.282 902.02 156.437 902.02 161.533Z" fill="white"/>
<path d="M226.947 36.5668H245.312C242.971 42.9189 237.783 57.3863 229.722 79.9932C223.689 96.9967 218.645 110.836 214.591 121.56C205.01 146.775 198.253 162.16 194.319 167.691C190.385 173.222 183.628 176 174.047 176C171.706 176 169.921 175.903 168.666 175.734C167.411 175.541 165.842 175.203 164.008 174.72V159.576C166.904 160.373 168.979 160.88 170.259 161.049C171.538 161.243 172.696 161.315 173.661 161.315C176.726 161.315 178.995 160.808 180.419 159.794C181.866 158.779 183.073 157.547 184.063 156.05C184.376 155.567 185.462 153.031 187.369 148.49C189.275 143.949 190.651 140.568 191.52 138.346L154.982 36.5426H173.806L200.28 117.092L226.947 36.5426V36.5668Z" fill="white"/>
<path d="M101.817 52.2902C109.757 52.2902 115.67 54.8745 119.869 60.2364C123.103 64.3423 124.744 69.5352 124.744 75.6458V122.115C124.744 139.022 141.275 139.022 141.275 139.022V75.1144C141.275 63.5936 137.558 54.1982 130.246 47.1457C122.716 40.0448 113.449 36.6151 101.817 36.6151C90.1852 36.6151 81.1111 39.9965 73.7023 47.0007C66.1728 53.9809 62.3839 63.4487 62.3839 75.1144V139.022H78.915V75.6699C78.915 69.5593 80.5802 64.3906 83.8382 60.2605C88.0132 54.9228 93.9016 52.3143 101.841 52.3143H101.817V52.2902Z" fill="white"/>
<path d="M39.4334 52.2902C47.3731 52.2902 53.2857 54.8745 57.4849 60.2364C60.7187 64.3423 62.3597 69.5352 62.3597 75.6458V122.115C62.3597 139.022 78.8909 139.022 78.8909 139.022V75.1144C78.8909 63.5936 75.1744 54.1982 67.8621 47.1457C60.3326 40.0448 51.0655 36.6151 39.4334 36.6151C27.8012 36.6151 18.7272 39.9965 11.3184 47.0007C3.78889 53.9809 0 63.4487 0 75.1144V139.022H16.5311V75.6699C16.5311 69.5593 18.1963 64.3906 21.4543 60.2605C25.6293 54.9228 31.5177 52.3143 39.4575 52.3143H39.4334V52.2902Z" fill="white"/>
</svg>
