<svg width="32" height="32" viewBox="0 0 32 32" fill="none" xmlns="http://www.w3.org/2000/svg">
<path d="M0 15.9992C0 7.16349 7.16418 0 16.0006 0C24.8371 0 32 7.16349 32 15.9992C32 24.8365 24.8371 32 16.0006 32C7.16418 32 0 24.8365 0 15.9992Z" fill="#139FD5"/>
<path d="M19.6303 9.55127C20.8696 9.57112 21.9455 9.90513 22.8257 10.5561C23.6841 11.1934 24.1431 12.082 24.2244 13.2704H22.0692C21.9796 12.5403 21.6124 12.0075 20.9766 11.6865C20.6072 11.5005 20.1455 11.4096 19.6306 11.382V9.55127H19.6303Z" fill="white"/>
<path d="M12.1532 11.606C11.1961 11.606 10.4862 11.918 9.98351 12.5618C9.59088 13.0556 9.39363 13.6811 9.39363 14.4195V21.289H7.20343V14.3498C7.20343 12.8863 7.68322 11.7015 8.62821 10.8238C9.55862 9.94803 10.7108 9.52222 12.1535 9.52222C13.609 9.52222 14.7739 9.95237 15.7139 10.8415C16.6353 11.7294 17.1033 12.9114 17.1033 14.3498V16.7406H14.9153V14.4195C14.9153 13.6811 14.7165 13.0556 14.3254 12.5618C13.8215 11.918 13.1116 11.606 12.1532 11.606Z" fill="white"/>
<path d="M23.3715 21.0409C22.5258 21.7629 21.3072 22.1289 19.7457 22.1289C18.1466 22.1289 17.1228 21.766 16.2191 21.0524C15.3687 20.3844 14.9181 19.4624 14.8768 18.3083H17.032C17.1228 18.8334 17.2894 19.245 17.5239 19.5241C17.9915 20.0789 18.5389 20.3611 19.6427 20.3611C20.2909 20.3611 20.825 20.2879 21.2359 20.1468C22.0571 19.8609 22.4752 19.3144 22.4752 18.5264C22.4752 18.0484 22.2618 17.6735 21.8404 17.4105C21.4527 17.1791 20.8675 16.9791 20.0493 16.8042L19.6294 16.7115H19.6306V14.606L21.4908 15.0439C22.4219 15.2637 23.1262 15.5581 23.5824 15.9172C24.2898 16.4758 24.6328 17.2638 24.6328 18.3304C24.6325 19.414 24.2086 20.3248 23.3715 21.0409Z" fill="white"/>
</svg>
