<svg width="128" height="128" viewBox="0 0 128 128" fill="none" xmlns="http://www.w3.org/2000/svg">
<path d="M6 0.5H122C125.038 0.5 127.5 2.96243 127.5 6V122C127.5 125.038 125.038 127.5 122 127.5H6C2.96243 127.5 0.5 125.038 0.5 122V6C0.5 2.96243 2.96243 0.5 6 0.5Z" fill="#F9FAFB"/>
<path d="M6 0.5H122C125.038 0.5 127.5 2.96243 127.5 6V122C127.5 125.038 125.038 127.5 122 127.5H6C2.96243 127.5 0.5 125.038 0.5 122V6C0.5 2.96243 2.96243 0.5 6 0.5Z" stroke="#E5E7EB"/>
<g clip-path="url(#clip0_2471_975)">
<path d="M54.6879 99.344C65.2159 99.344 73.8559 83.232 75.9839 63.504C78.1919 63.472 80.0639 61.872 80.4479 59.712C80.4959 59.472 80.5119 59.232 80.5279 58.992H80.6559C82.2559 59.088 83.6319 57.872 83.7279 56.272C83.7919 55.232 83.2959 54.256 82.4319 53.68C84.7679 52.64 85.8079 49.92 84.7679 47.6C84.1279 46.16 82.7999 45.152 81.2479 44.912C82.2399 43.648 82.0159 41.824 80.7519 40.848C80.2559 40.464 79.6479 40.24 79.0239 40.224C79.7759 39.856 80.4319 39.296 80.8959 38.592C81.9839 36.896 82.1599 29.248 78.3199 24.32C76.7359 22.288 75.1839 23.52 75.0719 24.896C74.7679 29.136 74.7359 32.304 73.6319 35.936C73.3759 34.352 71.9039 33.28 70.3199 33.52C69.5839 33.632 68.9279 34.016 68.4799 34.608C68.1119 32.096 65.7759 30.336 63.2639 30.704C61.2319 30.992 59.6479 32.592 59.3599 34.608C58.3839 33.344 56.5599 33.104 55.2959 34.096C54.7199 34.544 54.3199 35.2 54.2079 35.92C53.1039 32.304 53.0719 29.12 52.7679 24.88C52.6719 23.488 51.1199 22.272 49.5359 24.304C45.6959 29.232 45.8719 36.88 46.9599 38.576C47.4079 39.28 48.0479 39.856 48.7999 40.24C47.1999 40.272 45.9199 41.6 45.9519 43.2C45.9679 43.824 46.1759 44.432 46.5759 44.928C44.0639 45.312 42.3359 47.664 42.7199 50.192C42.9599 51.744 43.9679 53.072 45.4079 53.712C44.0799 54.608 43.7119 56.4 44.6079 57.728C45.1839 58.592 46.1599 59.072 47.1999 59.008H47.3279C47.3279 59.248 47.3599 59.472 47.4079 59.696C47.7919 61.904 49.6959 63.504 51.9359 63.504C50.6399 69.024 48.6879 84.848 47.1039 99.328C47.1999 98.512 47.3919 97.68 47.4719 96.848C49.7759 98.464 52.1279 99.344 54.6879 99.344Z" fill="#4E4A99"/>
<path d="M63.984 103.376C69.856 103.376 75.584 103.472 81.008 103.648C80.864 102.304 80.72 100.944 80.576 99.584C80 94.192 79.408 88.448 78.816 83.056C77.792 74.416 76.768 66.944 75.984 63.504C73.856 83.248 65.216 99.344 54.688 99.344C52.128 99.344 49.776 98.464 47.488 96.864C47.392 97.696 47.2 98.512 47.12 99.344C46.96 100.8 46.816 102.24 46.688 103.664C52.224 103.472 58.016 103.376 63.984 103.376Z" fill="#3E3978"/>
<path d="M46.1919 60.192C45.3279 60.016 44.5279 59.568 43.9359 58.896C43.3279 59.024 42.7359 59.2 42.1599 59.424C40.9599 59.888 39.6319 59.888 38.4159 59.424C36.9439 58.896 35.3919 58.608 33.8399 58.592C31.6959 58.512 29.5519 58.784 27.5039 59.392V61.392C27.5359 61.568 27.6159 61.728 27.7279 61.856C27.9679 62.192 28.1759 62.56 28.3519 62.944C28.6719 63.824 28.8799 64.736 29.1839 65.616C29.4719 66.56 30.2879 67.264 31.2799 67.376C32.4639 67.552 33.6799 67.632 34.8799 67.6C35.5839 67.6 36.2719 67.424 36.8799 67.088C37.1999 65.648 37.6959 64.24 38.3359 62.896C39.2799 61.04 40.7679 60.96 41.7759 62.896C42.3839 64.112 42.8479 65.408 43.1679 66.736C43.5359 67.04 43.9519 67.248 44.4159 67.344C45.9839 67.728 47.6159 67.744 49.1839 67.392C49.4399 67.344 49.6799 67.264 49.9199 67.152C50.0799 66.192 50.2399 65.296 50.3999 64.512C48.2879 63.984 46.6719 62.304 46.1919 60.192Z" fill="#4E4A99"/>
<path d="M44.8159 75.056C44.7039 73.744 44.4959 72.464 44.1759 71.184C43.8079 69.712 43.5359 68.224 43.1679 66.784C42.8639 65.456 42.3839 64.16 41.7759 62.944C40.7679 61.008 39.2639 61.088 38.3359 62.944C37.6959 64.288 37.1999 65.68 36.8799 67.136C36.5599 68.48 36.2879 69.84 35.9359 71.2C35.6159 72.464 35.3919 73.76 35.2959 75.072C35.1359 77.088 36.4479 78.816 38.1119 78.816H41.9999C43.6479 78.816 44.9759 77.072 44.8159 75.056ZM40.6559 70.256C40.6559 71.136 40.6559 72.016 40.5759 72.88C40.4959 73.936 40.4479 74.992 40.2719 75.984C40.1599 76.688 39.9679 76.72 39.8399 75.984C39.6799 74.992 39.6319 73.936 39.5359 72.88C39.4559 72.016 39.4399 71.136 39.4559 70.256C38.3039 69.952 37.3919 68.784 37.1199 67.28C38.9279 68.32 41.1679 68.32 42.9759 67.28C42.7199 68.784 41.8079 69.952 40.6559 70.256Z" fill="white"/>
<path d="M37.1357 67.28C37.4077 68.784 38.3197 69.952 39.4717 70.256C39.4717 71.136 39.4717 72.016 39.5517 72.88C39.6317 73.936 39.6797 75.008 39.8557 75.984C39.9837 76.72 40.1757 76.688 40.2877 75.984C40.4477 74.992 40.4957 73.936 40.5917 72.88C40.6717 72.016 40.6877 71.136 40.6717 70.256C41.8237 69.952 42.7357 68.784 43.0077 67.28C41.1837 68.32 38.9437 68.32 37.1357 67.28Z" fill="#F39319"/>
<path d="M81.6641 60.192C81.1841 62.288 79.6001 63.968 77.5361 64.56C77.6641 65.248 77.8081 66.032 77.9681 66.928C78.3201 67.2 78.7201 67.36 79.1521 67.408C80.3361 67.584 81.5521 67.664 82.7521 67.632C83.4561 67.632 84.1441 67.456 84.7521 67.12C85.0721 65.68 85.5681 64.272 86.2081 62.928C87.1361 61.072 88.6401 60.992 89.6481 62.928C90.2561 64.144 90.7361 65.44 91.0401 66.768C91.4081 67.072 91.8241 67.28 92.2881 67.376C93.8561 67.76 95.4881 67.776 97.0561 67.424C98.1281 67.248 99.0241 66.48 99.3441 65.44C99.6161 64.624 99.8561 63.824 100.08 62.992C100.208 62.528 100.256 62.048 100.784 61.824C100.88 61.776 100.944 61.552 100.944 61.392C100.96 60.72 100.944 60.064 100.944 59.264C99.6481 59.056 98.3841 58.768 97.1041 58.656C94.7041 58.432 92.3201 58.528 90.0161 59.408C88.8161 59.872 87.4881 59.872 86.2721 59.408C85.5201 59.136 84.7521 58.928 83.9681 58.784C83.3761 59.52 82.5601 60 81.6641 60.192Z" fill="#4E4A99"/>
<path d="M92.6719 75.056C92.5599 73.744 92.3519 72.464 92.0319 71.184C91.6639 69.712 91.3919 68.224 91.0239 66.784C90.7199 65.456 90.2399 64.16 89.6319 62.944C88.6239 61.008 87.1199 61.088 86.1919 62.944C85.5519 64.288 85.0559 65.68 84.7359 67.136C84.4159 68.48 84.1439 69.84 83.7919 71.2C83.4719 72.464 83.2479 73.76 83.1519 75.072C82.9919 77.088 84.3039 78.816 85.9679 78.816H89.8559C91.5199 78.816 92.8319 77.072 92.6719 75.056ZM88.5119 70.256C88.5119 71.136 88.5119 72.016 88.4319 72.88C88.3519 73.936 88.3039 74.992 88.1279 75.984C88.0159 76.688 87.8239 76.72 87.6959 75.984C87.5359 74.992 87.4879 73.936 87.3919 72.88C87.3119 72 87.2959 71.136 87.3119 70.256C86.1599 69.952 85.2479 68.784 84.9759 67.28C86.7839 68.32 89.0239 68.32 90.8319 67.28C90.5759 68.784 89.6639 69.952 88.5119 70.256Z" fill="white"/>
<path d="M84.9917 67.28C85.2637 68.784 86.1757 69.952 87.3277 70.256C87.3117 71.136 87.3437 72.016 87.4077 72.88C87.4877 73.936 87.5357 75.008 87.7117 75.984C87.8397 76.72 88.0317 76.688 88.1437 75.984C88.3037 74.992 88.3517 73.936 88.4477 72.88C88.5117 72.016 88.5437 71.136 88.5277 70.256C89.6797 69.952 90.5917 68.784 90.8637 67.28C89.0397 68.32 86.7997 68.32 84.9917 67.28ZM97.5997 72.56C98.2397 75.328 99.0557 81.312 99.8717 88.24C99.1517 81.696 98.4157 75.808 97.5997 72.56Z" fill="#F39319"/>
<path d="M48.2721 47.104C50.8321 46.336 53.5041 46 56.1761 46.096C58.1281 46.128 60.0641 46.48 61.8881 47.136C63.3921 47.712 65.0561 47.712 66.5601 47.136C69.4401 46.048 72.4001 45.936 75.3921 46.208C76.9761 46.352 78.5601 46.704 80.1761 46.96V49.616C80.1761 49.808 80.0961 50.096 79.9681 50.144C79.3281 50.432 79.2481 51.024 79.0881 51.6C78.8161 52.624 78.5121 53.648 78.1761 54.656C77.7761 55.952 76.6721 56.912 75.3281 57.12C73.3761 57.552 71.3281 57.536 69.3921 57.056C68.3361 56.832 67.4241 56.144 66.9601 55.152C66.3521 53.888 65.7601 52.624 65.0881 51.376C64.8961 51.04 64.5761 50.8 64.1921 50.704C63.9361 50.688 63.5521 51.072 63.3921 51.36C62.8961 52.256 62.4481 53.168 62.0801 54.112C61.2641 56.24 59.6641 57.264 57.4881 57.328C55.9841 57.344 54.4801 57.248 53.0081 57.04C51.7761 56.896 50.7521 56.032 50.4001 54.848C50.0161 53.744 49.7601 52.592 49.3601 51.504C49.1361 51.024 48.8801 50.576 48.5761 50.144C48.4481 49.968 48.3521 49.776 48.3041 49.568C48.2561 48.816 48.2721 48 48.2721 47.104Z" fill="#F8AB13"/>
<path d="M69.0561 61.792C68.1761 58.288 67.7601 54.768 66.0641 51.52C64.8001 49.104 62.9441 49.2 61.7761 51.52C60.1281 54.8 59.6801 58.288 58.7841 61.792C58.3841 63.376 58.1121 64.992 57.9841 66.624C57.7921 69.136 59.4241 71.296 61.4881 71.296H66.3201C68.3841 71.296 70.0321 69.136 69.8241 66.624C69.7121 64.992 69.4561 63.376 69.0561 61.792Z" fill="white"/>
<path d="M67.584 56.928C66.4708 57.565 65.2105 57.9 63.928 57.9C62.6454 57.9 61.3852 57.565 60.272 56.928C60.592 58.8 61.744 60.256 63.168 60.64C63.152 61.728 63.184 62.832 63.264 63.92C63.376 65.248 63.424 66.56 63.632 67.792C63.792 68.704 64.016 68.672 64.16 67.792C64.368 66.56 64.416 65.232 64.528 63.92C64.624 62.848 64.64 61.744 64.624 60.64C66.096 60.256 67.248 58.8 67.584 56.928Z" fill="#4E4A99"/>
<path d="M32.6559 101.296C39.1039 101.296 44.6559 93.776 47.6959 83.152C48.4159 77.36 49.1999 71.456 49.9199 67.216C49.6799 67.312 49.4399 67.392 49.1839 67.456C47.6159 67.808 45.9839 67.792 44.4159 67.408C43.9519 67.296 43.5359 67.088 43.1679 66.8C43.5359 68.256 43.8079 69.728 44.1759 71.2C44.4959 72.464 44.7199 73.76 44.8159 75.072C44.9759 77.088 43.6639 78.816 41.9999 78.816H38.1279C36.4799 78.816 35.1519 77.072 35.3119 75.072C35.4239 73.76 35.6319 72.48 35.9519 71.2C36.2879 69.84 36.5599 68.48 36.8959 67.136C36.2879 67.472 35.5999 67.648 34.8959 67.648C33.6959 67.664 32.4959 67.584 31.2959 67.424C30.3039 67.312 29.4879 66.608 29.1999 65.664C28.8799 64.784 28.6719 63.872 28.3679 62.992C28.1919 62.608 27.9839 62.256 27.7439 61.904C27.6319 61.76 27.5679 61.6 27.5199 61.44C27.4879 60.8 27.5199 60.144 27.5199 59.44C29.5679 58.832 31.7119 58.56 33.8559 58.64C35.4239 58.656 36.9759 58.944 38.4319 59.472C39.6319 59.936 40.9599 59.936 42.1759 59.472C42.7519 59.248 43.3439 59.072 43.9519 58.944C42.6879 57.584 42.4799 55.552 43.4399 53.952C41.3759 52.176 40.7999 49.232 42.0319 46.8C40.3039 45.712 38.0319 46.24 36.9439 47.968C36.6719 48.4 36.4959 48.896 36.4159 49.408C35.6319 48.384 34.1599 48.208 33.1519 48.992C32.6879 49.36 32.3679 49.872 32.2879 50.464C31.4079 47.568 31.3759 44.992 31.1359 41.6C31.0559 40.496 29.8079 39.504 28.5439 41.136C25.4559 45.088 25.5999 51.216 26.4639 52.576C26.8319 53.136 27.3599 53.6 27.9679 53.888C26.6879 53.92 25.6639 54.976 25.6959 56.272C25.7119 56.768 25.8719 57.264 26.1919 57.648C24.1759 57.968 22.7839 59.856 23.1039 61.872C23.2959 63.12 24.1119 64.176 25.2479 64.688C24.1759 65.408 23.9039 66.848 24.6079 67.92C25.0719 68.608 25.8399 68.992 26.6719 68.944H26.7839C26.7839 69.136 26.7999 69.312 26.8479 69.504C27.1519 71.264 28.6879 72.56 30.4639 72.56C29.4399 76.992 27.8719 89.68 26.5919 101.296C26.6559 100.656 26.8159 99.968 26.8959 99.312C28.7199 100.592 30.6079 101.296 32.6559 101.296Z" fill="#F8AB13"/>
<path d="M45.8401 99.184C46.2561 95.44 46.9281 89.36 47.6961 83.168C44.6721 93.776 39.1041 101.312 32.6561 101.312C30.6081 101.312 28.7201 100.608 26.8801 99.312C26.8001 99.968 26.6561 100.64 26.5761 101.296C26.4481 102.48 26.3361 103.648 26.2241 104.784C32.0481 104.304 38.4961 103.936 45.3761 103.696C45.5361 102.224 45.6801 100.704 45.8401 99.184Z" fill="#F39319"/>
<path d="M97.6 72.56C99.36 72.528 100.864 71.248 101.184 69.52C101.216 69.328 101.232 69.136 101.248 68.944H101.36C102.64 69.008 103.744 68.032 103.808 66.736C103.856 65.92 103.456 65.136 102.784 64.672C104.656 63.84 105.488 61.648 104.656 59.792C104.144 58.64 103.088 57.84 101.84 57.648C102.624 56.64 102.448 55.168 101.44 54.384C101.04 54.08 100.56 53.904 100.064 53.888C100.672 53.6 101.184 53.136 101.568 52.576C102.432 51.216 102.576 45.072 99.488 41.136C98.224 39.52 96.976 40.496 96.896 41.6C96.656 44.992 96.624 47.552 95.744 50.464C95.536 49.2 94.352 48.336 93.072 48.544C92.496 48.64 91.968 48.944 91.616 49.408C91.328 47.392 89.44 46 87.424 46.288C86.864 46.368 86.336 46.576 85.888 46.896C87.072 49.312 86.48 52.224 84.432 53.984C85.36 55.536 85.184 57.52 84 58.88C84.784 59.024 85.552 59.232 86.304 59.504C87.504 59.968 88.832 59.968 90.048 59.504C92.352 58.624 94.736 58.544 97.136 58.752C98.432 58.864 99.68 59.152 100.976 59.36V61.488C100.976 61.632 100.912 61.872 100.816 61.92C100.288 62.144 100.24 62.624 100.112 63.088C99.888 63.92 99.648 64.736 99.376 65.536C99.056 66.576 98.176 67.344 97.088 67.52C95.52 67.872 93.888 67.856 92.32 67.472C91.856 67.36 91.44 67.152 91.072 66.864C91.44 68.32 91.712 69.792 92.08 71.264C92.4 72.528 92.624 73.824 92.72 75.136C92.88 77.152 91.568 78.88 89.904 78.88H86.016C84.368 78.88 83.04 77.136 83.2 75.136C83.312 73.824 83.52 72.544 83.84 71.264C84.176 69.904 84.448 68.544 84.784 67.2C84.176 67.536 83.488 67.712 82.784 67.712C81.584 67.728 80.384 67.648 79.184 67.488C78.752 67.44 78.336 67.264 78 67.008C78.992 72.96 80.288 83.504 82.016 99.52C82.08 100.08 82.144 100.64 82.192 101.232C89.84 99.6 96 87.36 97.6 72.56Z" fill="#F8AB13"/>
<path d="M101.28 101.504C100.816 97.184 100.352 92.576 99.8717 88.256C99.0397 81.328 98.2397 75.344 97.5997 72.576C95.9837 87.392 89.8397 99.632 82.1597 101.152L82.4317 103.696C89.3277 103.936 95.7917 104.304 101.648 104.784C101.52 103.696 101.408 102.592 101.28 101.504Z" fill="#F39319"/>
<path d="M81.024 103.648H81.12C80.976 102.304 80.832 100.944 80.688 99.568C80.096 94.048 79.456 88.32 78.832 83.04C79.424 88.432 80 94.176 80.592 99.568C80.736 100.944 80.88 102.304 81.024 103.648Z" fill="#4E4A99"/>
<path d="M75.9838 63.488C76.7838 66.944 77.7918 74.4 78.8158 83.04C77.9198 74.896 76.9918 67.552 75.9838 63.488ZM47.1198 99.328C46.9598 100.784 46.7998 102.224 46.6558 103.648H46.7038C46.8158 102.224 46.9598 100.784 47.1198 99.328Z" fill="#3E3978"/>
</g>
<defs>
<clipPath id="clip0_2471_975">
<rect width="81.92" height="81.92" fill="white" transform="translate(23.04 23.04)"/>
</clipPath>
</defs>
</svg>
