<svg width="128" height="128" viewBox="0 0 128 128" fill="none" xmlns="http://www.w3.org/2000/svg">
<path d="M6 0.5H122C125.038 0.5 127.5 2.96243 127.5 6V122C127.5 125.038 125.038 127.5 122 127.5H6C2.96243 127.5 0.5 125.038 0.5 122V6C0.5 2.96243 2.96243 0.5 6 0.5Z" fill="#F9FAFB"/>
<path d="M6 0.5H122C125.038 0.5 127.5 2.96243 127.5 6V122C127.5 125.038 125.038 127.5 122 127.5H6C2.96243 127.5 0.5 125.038 0.5 122V6C0.5 2.96243 2.96243 0.5 6 0.5Z" stroke="#E5E7EB"/>
<path d="M92.9633 48.3267C85.5527 43.774 75.3083 40.96 63.9993 40.96C52.6887 40.96 42.4489 43.774 35.0383 48.3267C27.6261 52.875 23.04 59.1604 23.04 66.1049C23.04 73.0479 27.6261 79.3334 35.0383 83.8816C42.4489 88.4359 52.6887 77.4408 63.9993 77.4408C75.3083 77.4408 85.5527 88.4359 92.9633 83.8816C100.374 79.3334 104.96 73.0464 104.96 66.1049C104.96 59.1589 100.374 52.875 92.9633 48.3267ZM47.7196 66.675C43.6509 66.675 40.3527 65.2846 40.3527 63.5669C40.3527 61.8477 43.6509 60.4558 47.7196 60.4558C51.7869 60.4558 55.0866 61.8493 55.0866 63.5669C55.0866 65.2846 51.7869 66.675 47.7196 66.675ZM80.1447 66.963C76.094 66.963 72.814 65.6721 72.814 64.0796C72.814 62.4902 76.0955 61.1978 80.1447 61.1978C84.1939 61.1978 87.4785 62.4902 87.4785 64.0796C87.4785 65.6721 84.1939 66.963 80.1447 66.963Z" fill="#6700AD"/>
<path d="M92.9633 48.3267C85.5527 43.774 75.3083 40.96 63.9993 40.96C52.6887 40.96 42.4489 43.774 35.0383 48.3267C27.6261 52.875 23.04 59.1604 23.04 66.1049C23.04 73.0479 27.6261 79.3334 35.0383 83.8816C42.4489 88.4359 52.6887 77.4408 63.9993 77.4408C75.3083 77.4408 85.5527 88.4359 92.9633 83.8816C100.374 79.3334 104.96 73.0464 104.96 66.1049C104.96 59.1589 100.374 52.875 92.9633 48.3267ZM47.7196 66.675C43.6509 66.675 40.3527 65.2846 40.3527 63.5669C40.3527 61.8477 43.6509 60.4558 47.7196 60.4558C51.7869 60.4558 55.0866 61.8493 55.0866 63.5669C55.0866 65.2846 51.7869 66.675 47.7196 66.675ZM80.1447 66.963C76.094 66.963 72.814 65.6721 72.814 64.0796C72.814 62.4902 76.0955 61.1978 80.1447 61.1978C84.1939 61.1978 87.4785 62.4902 87.4785 64.0796C87.4785 65.6721 84.1939 66.963 80.1447 66.963Z" stroke="#FFB616"/>
<path d="M91.6109 53.1675C90.2174 54.7932 87.4154 55.0752 85.7943 54.766C67.3309 51.2402 44.3328 49.23 34.194 64.7341C32.4311 67.4305 28.109 68.2915 25.5468 66.025C23.0403 63.8082 29.7875 53.8356 36.6356 49.6568C43.4943 45.463 52.965 42.8661 63.425 42.8661C73.885 42.8661 83.3542 45.463 90.2023 49.6553C91.3047 50.3218 92.656 51.9475 91.6109 53.1675Z" fill="url(#paint0_linear_2471_975)"/>
<defs>
<linearGradient id="paint0_linear_2471_975" x1="56.1176" y1="16.7101" x2="59.6954" y2="79.3388" gradientUnits="userSpaceOnUse">
<stop stop-color="white" stop-opacity="0.73"/>
<stop offset="1" stop-color="white" stop-opacity="0"/>
</linearGradient>
</defs>
</svg>
