<svg width="128" height="128" viewBox="0 0 128 128" fill="none" xmlns="http://www.w3.org/2000/svg">
<path d="M6 0.5H122C125.038 0.5 127.5 2.96243 127.5 6V122C127.5 125.038 125.038 127.5 122 127.5H6C2.96243 127.5 0.5 125.038 0.5 122V6C0.5 2.96243 2.96243 0.5 6 0.5Z" fill="#F9FAFB"/>
<path d="M6 0.5H122C125.038 0.5 127.5 2.96243 127.5 6V122C127.5 125.038 125.038 127.5 122 127.5H6C2.96243 127.5 0.5 125.038 0.5 122V6C0.5 2.96243 2.96243 0.5 6 0.5Z" stroke="#E5E7EB"/>
<path d="M27.1836 59.0137V104.899C27.1836 103.354 33.5256 97.4916 41.1465 97.4916H64.7022C86.0196 97.4916 102.497 79.8735 101.794 59.0137C101.116 38.8463 84.9406 23.1562 64.7022 23.0406C44.4638 22.925 27.1836 39.9348 27.1836 59.0137Z" fill="url(#paint0_linear_2471_1301)"/>
<path d="M65.7866 35.84C79.9999 35.84 91.522 47.3015 91.522 61.44C91.522 64.2677 89.2175 66.56 86.3749 66.56H51.2275C53.3476 72.5252 59.0638 76.8 65.7866 76.8C68.7271 76.8 71.4606 75.9866 73.7912 74.5775C76.2199 73.1089 79.3866 73.877 80.8634 76.2925C82.34 78.7087 81.5683 81.8586 79.1393 83.3275C75.2427 85.6837 70.6661 87.04 65.7866 87.04C51.5734 87.04 40.0513 75.5785 40.0513 61.44C40.0513 47.3015 51.5734 35.84 65.7866 35.84ZM65.7866 46.08C59.0638 46.08 53.3476 50.3548 51.2275 56.32H80.3457C78.2256 50.3548 72.5094 46.08 65.7866 46.08Z" fill="white"/>
<defs>
<linearGradient id="paint0_linear_2471_1301" x1="64.4998" y1="23.04" x2="64.4998" y2="104.96" gradientUnits="userSpaceOnUse">
<stop stop-color="#48C7C7"/>
<stop offset="1" stop-color="#40B4EF"/>
</linearGradient>
</defs>
</svg>
