<svg width="128" height="128" viewBox="0 0 128 128" fill="none" xmlns="http://www.w3.org/2000/svg">
<path d="M6 0.5H122C125.038 0.5 127.5 2.96243 127.5 6V122C127.5 125.038 125.038 127.5 122 127.5H6C2.96243 127.5 0.5 125.038 0.5 122V6C0.5 2.96243 2.96243 0.5 6 0.5Z" fill="#F9FAFB"/>
<path d="M6 0.5H122C125.038 0.5 127.5 2.96243 127.5 6V122C127.5 125.038 125.038 127.5 122 127.5H6C2.96243 127.5 0.5 125.038 0.5 122V6C0.5 2.96243 2.96243 0.5 6 0.5Z" stroke="#E5E7EB"/>
<path d="M105.064 57.592C104.905 56.0815 104.666 54.3324 104.189 52.4243C103.712 50.5163 102.917 48.4492 101.883 46.2231C100.77 44.0765 99.4188 41.7709 97.5903 39.6243C96.8747 38.7498 96.0797 37.9548 95.2847 37.0802C96.5567 32.0716 93.7741 27.6989 93.7741 27.6989C88.9244 27.3809 85.9033 29.2094 84.7903 30.0045C84.6313 29.925 84.3927 29.8455 84.2337 29.766C83.4387 29.4479 82.5642 29.1299 81.6896 28.8119C80.8151 28.5734 79.9406 28.2554 79.066 28.0964C78.1915 27.8579 77.2375 27.6989 76.2834 27.5399C76.1244 27.5399 75.9654 27.4604 75.8064 27.4604C73.7393 20.7821 67.6971 17.92 67.6971 17.92C60.7803 22.3722 59.4288 28.3349 59.4288 28.3349C59.4288 28.3349 59.4288 28.4939 59.3493 28.6529C58.9517 28.7324 58.6337 28.8914 58.2362 28.9709C57.7592 29.1299 57.2027 29.2889 56.7257 29.5275C56.2486 29.766 55.6921 29.925 55.2151 30.1635C54.1816 30.6405 53.2275 31.1175 52.194 31.674C51.2399 32.2306 50.2859 32.7871 49.4114 33.4231C49.2524 33.3436 49.1729 33.2641 49.1729 33.2641C39.871 29.6865 31.6027 33.9796 31.6027 33.9796C30.8871 43.9175 35.3393 50.1188 36.2139 51.2318C35.9753 51.8678 35.8163 52.4243 35.5778 53.0604C34.8623 55.2865 34.3853 57.592 34.0673 59.9771C33.9878 60.2952 33.9878 60.6927 33.9083 61.0107C25.3219 65.2243 22.7778 73.9697 22.7778 73.9697C29.9331 82.238 38.3604 82.715 38.3604 82.715C39.394 84.6231 40.666 86.4517 42.0176 88.1212C42.5741 88.8368 43.2101 89.4728 43.8462 90.1883C41.2226 97.6616 44.2437 103.942 44.2437 103.942C52.2735 104.26 57.5207 100.444 58.6337 99.5697C59.4288 99.8082 60.2238 100.047 61.0188 100.285C63.4834 100.921 66.0275 101.319 68.4921 101.398C69.1281 101.398 69.7642 101.398 70.4002 101.398H70.7182H70.9567H71.3542H71.7517C75.4884 106.804 82.1667 107.52 82.1667 107.52C86.8573 102.511 87.1754 97.6616 87.1754 96.5486C87.1754 96.5486 87.1754 96.5486 87.1754 96.4691C87.1754 96.3896 87.1754 96.3101 87.1754 96.3101C87.1754 96.2306 87.1754 96.1511 87.1754 96.0716C88.1294 95.356 89.0834 94.6405 90.0375 93.8455C91.9455 92.1759 93.5356 90.1883 94.9667 88.1212C95.1257 87.9622 95.2052 87.7237 95.3642 87.5647C100.691 87.8827 104.428 84.2256 104.428 84.2256C103.553 78.6604 100.373 75.9573 99.7368 75.4802C99.7368 75.4802 99.7368 75.4803 99.6573 75.4007L99.5778 75.3212L99.4983 75.2417C99.4983 74.9237 99.5778 74.6057 99.5778 74.2082C99.6573 73.5722 99.6573 73.0157 99.6573 72.3796V71.9026V71.6641V71.5846C99.6573 71.4256 99.6573 71.5051 99.6573 71.4256V71.0281V70.5511C99.6573 70.392 99.6573 70.233 99.6573 70.074C99.6573 69.915 99.6573 69.756 99.5778 69.597L99.4983 69.12L99.4188 68.643C99.3393 68.007 99.1803 67.4504 99.1008 66.8144C98.5443 64.4293 97.5903 62.1237 96.3977 60.1361C95.1257 58.0691 93.6151 56.32 91.866 54.7299C90.117 53.2194 88.2089 51.9473 86.1418 51.0728C84.0747 50.1188 82.0076 49.5622 79.8611 49.3237C78.8275 49.1647 77.7145 49.1647 76.6809 49.1647H76.2834H76.2039H76.0449H75.8859H75.4884C75.3294 49.1647 75.1704 49.1647 75.0909 49.1647C74.5344 49.2442 73.9778 49.3237 73.5008 49.4032C71.3542 49.8007 69.3667 50.5958 67.6176 51.6293C65.8685 52.6629 64.358 54.0144 63.0859 55.525C61.8139 57.0355 60.8598 58.6256 60.2238 60.3747C59.5878 62.0442 59.1903 63.8728 59.1108 65.5424C59.1108 65.9399 59.1108 66.4169 59.1108 66.8144C59.1108 66.8939 59.1108 67.0529 59.1108 67.1324V67.4504C59.1108 67.6889 59.1108 67.8479 59.1903 68.0865C59.2698 68.961 59.4288 69.756 59.6673 70.5511C60.1443 72.1411 60.8598 73.5722 61.8139 74.8442C62.7679 76.1163 63.8014 77.0703 64.994 77.8653C66.1865 78.6604 67.3791 79.2169 68.6511 79.6144C69.9232 80.0119 71.1157 80.1709 72.2288 80.0914C72.3878 80.0914 72.5468 80.0914 72.6263 80.0914C72.7058 80.0914 72.7853 80.0914 72.8648 80.0914C72.9443 80.0914 73.0238 80.0914 73.1033 80.0914C73.2623 80.0914 73.3418 80.0914 73.5008 80.0914H73.5803H73.6598C73.7393 80.0914 73.8188 80.0914 73.8983 80.0914C74.0573 80.0914 74.2163 80.0119 74.2958 80.0119C74.4549 80.0119 74.5344 79.9324 74.6934 79.9324C74.9319 79.8529 75.2499 79.7734 75.4884 79.6939C75.9654 79.5349 76.4424 79.2964 76.9195 79.1374C77.3965 78.8989 77.794 78.6604 78.112 78.4219C78.1915 78.3424 78.3505 78.2629 78.43 78.1834C78.8275 77.8653 78.907 77.3088 78.589 76.9113C78.271 76.5933 77.794 76.5138 77.3965 76.6728C77.317 76.7523 77.2375 76.7523 77.0785 76.8318C76.7604 76.9908 76.3629 77.1498 76.0449 77.2293C75.6474 77.3088 75.2499 77.4678 74.8524 77.5473C74.6139 77.5473 74.4549 77.6268 74.2163 77.6268C74.1368 77.6268 73.9778 77.6268 73.8983 77.6268C73.8188 77.6268 73.6598 77.6268 73.5803 77.6268C73.5008 77.6268 73.3418 77.6268 73.2623 77.6268C73.1033 77.6268 73.0238 77.6268 72.8648 77.6268H72.7853H72.7058C72.6263 77.6268 72.6263 77.6268 72.5468 77.6268C72.4673 77.6268 72.3083 77.6268 72.2288 77.5473C71.3542 77.3883 70.4002 77.1498 69.5257 76.7523C68.6511 76.3548 67.7766 75.7983 67.0611 75.0827C66.266 74.3672 65.63 73.5722 65.0735 72.6181C64.517 71.6641 64.199 70.6306 64.0399 69.597C63.9604 69.0405 63.8809 68.484 63.9604 67.9275C63.9604 67.7684 63.9604 67.6094 63.9604 67.4504V67.3709V67.2914C63.9604 67.2119 63.9604 67.1324 63.9604 67.0529C63.9604 66.7349 64.0399 66.4964 64.1195 66.1784C64.517 63.7933 65.7095 61.4877 67.5381 59.7386C68.0151 59.2616 68.4921 58.8641 69.0486 58.5461C69.6052 58.1486 70.1617 57.8306 70.7182 57.592C71.2747 57.3535 71.9108 57.115 72.5468 56.956C73.1828 56.797 73.8188 56.638 74.4549 56.638C74.7729 56.638 75.0909 56.5585 75.4089 56.5585C75.4884 56.5585 75.5679 56.5585 75.6474 56.5585H75.8859H76.0449H76.1244H76.3629C77.0785 56.638 77.794 56.7175 78.43 56.8765C79.7816 57.1945 81.1331 57.6716 82.4052 58.3871C84.9493 59.8181 87.0959 61.9647 88.3679 64.5883C89.0039 65.8604 89.4809 67.2914 89.7195 68.802C89.799 69.1995 89.799 69.5175 89.8785 69.915V70.1535V70.392C89.8785 70.4716 89.8785 70.5511 89.8785 70.6306C89.8785 70.7101 89.8785 70.7896 89.8785 70.8691V71.1076V71.3461C89.8785 71.5051 89.8785 71.8231 89.8785 71.9821C89.8785 72.3796 89.799 72.7771 89.799 73.1747C89.7194 73.5722 89.7195 73.9697 89.6399 74.3672C89.5604 74.7647 89.4809 75.1622 89.4014 75.5598C89.2424 76.3548 88.9244 77.0703 88.6859 77.8653C88.1294 79.3759 87.3344 80.807 86.3803 82.079C84.4722 84.7026 81.8486 86.8492 78.907 88.2007C77.3965 88.8368 75.8859 89.3933 74.2958 89.6318C73.5008 89.7908 72.7058 89.8703 71.9108 89.8703H71.7517H71.5927H71.3542H70.9567H70.7182H70.6387C70.2412 89.8703 69.7642 89.8703 69.3667 89.7908C67.6176 89.6318 65.948 89.3138 64.2785 88.8368C62.6089 88.3597 61.0188 87.7237 59.5083 86.9287C56.4871 85.3386 53.784 83.033 51.6375 80.4094C50.6039 79.0579 49.6499 77.6268 48.8549 76.1163C48.0598 74.6057 47.5033 73.0157 47.0263 71.4256C46.5493 69.8355 46.3108 68.166 46.2313 66.4964V66.1784V66.0989V66.0194V65.8604V65.6219V65.5424V65.4629V65.3038V64.9063V64.8268V64.6678C46.2313 64.4293 46.2313 64.2703 46.2313 64.0318C46.2313 63.2368 46.3108 62.3622 46.4698 61.4877C46.5493 60.6132 46.7083 59.8181 46.8673 58.9436C47.0263 58.0691 47.2648 57.274 47.5033 56.3995C47.9803 54.7299 48.5368 53.1399 49.2524 51.6293C50.6834 48.6082 52.512 45.9051 54.6586 43.7585C55.2151 43.202 55.7716 42.725 56.4077 42.2479C56.6462 42.0094 57.2027 41.5324 57.8387 41.1349C58.4747 40.7374 59.1108 40.3399 59.8263 40.0219C60.1443 39.8629 60.4623 39.7039 60.8598 39.5448C61.0188 39.4653 61.1778 39.3858 61.4163 39.3063C61.5753 39.2268 61.7344 39.1473 61.9729 39.0678C62.6884 38.7498 63.4039 38.5113 64.1195 38.2728C64.2785 38.1933 64.517 38.1933 64.676 38.1138C64.835 38.0343 65.0735 38.0343 65.2325 37.9548C65.63 37.8753 65.948 37.7958 66.3455 37.6368C66.5045 37.5573 66.7431 37.5573 66.9021 37.4778C67.0611 37.4778 67.2996 37.3983 67.4586 37.3983C67.6176 37.3983 67.8561 37.3188 68.0151 37.3188L68.3331 37.2393L68.6511 37.1598C68.8101 37.1598 69.0486 37.0802 69.2077 37.0802C69.4462 37.0802 69.6052 37.0007 69.8437 37.0007C70.0027 37.0007 70.3207 36.9212 70.4797 36.9212C70.6387 36.9212 70.7182 36.9212 70.8772 36.8417H71.1157H71.2747H71.4337C71.6722 36.8417 71.8313 36.8417 72.0698 36.7622H72.3878H72.4673H72.6263C72.7853 36.7622 73.0238 36.7622 73.1828 36.7622C73.8983 36.7622 74.6139 36.7622 75.3294 36.7622C76.7604 36.8417 78.1915 37.0007 79.5431 37.2393C82.2462 37.7163 84.8698 38.5908 87.1754 39.7834C89.4809 40.8964 91.6275 42.3275 93.3766 43.838C93.4561 43.9175 93.6151 43.997 93.6946 44.156C93.7741 44.2355 93.9331 44.315 94.0126 44.474C94.2511 44.633 94.4101 44.8716 94.6486 45.0306C94.8872 45.1896 95.0462 45.4281 95.2847 45.5871C95.4437 45.8256 95.6822 45.9846 95.8412 46.2231C96.6362 47.0181 97.3518 47.8927 97.9878 48.6877C99.2598 50.3573 100.293 52.0268 101.088 53.6169C101.168 53.6964 101.168 53.7759 101.247 53.9349C101.327 54.0144 101.327 54.0939 101.406 54.2529C101.486 54.4119 101.565 54.6504 101.724 54.8094C101.804 54.9684 101.883 55.207 101.963 55.366C102.042 55.525 102.122 55.7635 102.201 55.9225C102.519 56.638 102.758 57.3535 102.996 58.0691C103.394 59.1821 103.632 60.1361 103.871 60.9312C103.951 61.2492 104.269 61.4877 104.587 61.4877C104.984 61.4877 105.223 61.1697 105.223 60.7722C105.143 59.8181 105.143 58.7846 105.064 57.592Z" fill="url(#paint0_linear_2471_975)"/>
<defs>
<linearGradient id="paint0_linear_2471_975" x1="64.0002" y1="17.92" x2="64.0002" y2="107.52" gradientUnits="userSpaceOnUse">
<stop stop-color="#F15B2A"/>
<stop offset="1" stop-color="#FCEE1F"/>
</linearGradient>
</defs>
</svg>
