<svg width="128" height="128" viewBox="0 0 128 128" fill="none" xmlns="http://www.w3.org/2000/svg">
<path d="M6 0.5H122C125.038 0.5 127.5 2.96243 127.5 6V122C127.5 125.038 125.038 127.5 122 127.5H6C2.96243 127.5 0.5 125.038 0.5 122V6C0.5 2.96243 2.96243 0.5 6 0.5Z" fill="#F9FAFB"/>
<path d="M6 0.5H122C125.038 0.5 127.5 2.96243 127.5 6V122C127.5 125.038 125.038 127.5 122 127.5H6C2.96243 127.5 0.5 125.038 0.5 122V6C0.5 2.96243 2.96243 0.5 6 0.5Z" stroke="#E5E7EB"/>
<path d="M19.2002 69.5809L43.5202 60.6209L47.3602 64.4609V59.3409L78.0802 46.5409L112.64 77.2609V92.6209L92.8002 93.9009L72.9602 95.1809L19.2002 90.0609V69.5809Z" fill="#B0AFDF"/>
<path d="M43.5202 60.6209L19.2002 69.5809V90.0609M43.5202 60.6209V86.2209M43.5202 60.6209L47.3602 64.4609M43.5202 86.2209L19.2002 90.0609M43.5202 86.2209H47.3602M19.2002 90.0609L72.9602 95.1809L92.8002 93.9009M112.64 92.6209L78.0802 79.8209M112.64 92.6209V77.2609L78.0802 46.5409M112.64 92.6209L92.8002 93.9009M78.0802 79.8209L47.3602 86.2209M78.0802 79.8209V46.5409M47.3602 86.2209L92.8002 93.9009M47.3602 86.2209V64.4609M78.0802 46.5409L47.3602 59.3409V64.4609" stroke="black" stroke-width="0.3"/>
<path d="M69.7756 41.5631C69.1484 39.9289 68.9012 38.4759 69.0343 37.2041C69.1694 35.9236 69.797 35.0683 70.9173 34.6382C71.6735 34.348 72.3274 34.3283 72.879 34.5793C73.4326 34.8216 73.8782 35.1173 74.2157 35.4665C74.4019 35.6583 74.4516 35.8507 74.3649 36.0435L74.088 36.6405C74.004 36.8403 73.8279 36.8002 73.5598 36.5201C73.3016 36.2522 73.0048 36.051 72.6693 35.9165C72.3385 35.7802 71.928 35.8061 71.4379 35.9942C70.7984 36.2397 70.4384 36.7808 70.3579 37.6176C70.2774 38.4543 70.5174 39.6028 71.078 41.0631C71.6386 42.5235 72.2287 43.5376 72.8484 44.1055C73.4681 44.6735 74.0977 44.8347 74.7372 44.5893C75.2553 44.3904 75.596 44.092 75.7593 43.6942C75.92 43.2895 75.9965 42.8891 75.9891 42.493C75.985 42.1196 76.0867 41.9729 76.2941 42.0528L76.9234 42.29C77.1115 42.3614 77.2046 42.5411 77.2026 42.829C77.2007 43.1729 77.0961 43.6957 76.8889 44.3976C76.6837 45.0907 76.1399 45.6066 75.2577 45.9453C74.1374 46.3753 73.1 46.1632 72.1454 45.3089C71.1929 44.4458 70.4029 43.1972 69.7756 41.5631Z" fill="black"/>
<path d="M64.6928 49.7968C64.4828 49.8774 64.3177 49.7613 64.1976 49.4484L60.3537 39.4348C60.2336 39.1218 60.2786 38.9251 60.4886 38.8444L61.0768 38.6187C61.2868 38.538 61.4519 38.6542 61.572 38.9671L61.8924 39.8016L61.9204 39.7908C62.0316 39.1737 62.2155 38.6762 62.4722 38.2984C62.7289 37.9207 63.1186 37.6314 63.6414 37.4307C64.491 37.1046 65.2376 37.2289 65.8813 37.8036C66.527 38.3696 67.0874 39.2714 67.5626 40.5092L70.1211 47.1745C70.2413 47.4875 70.1963 47.6842 69.9862 47.7649L69.3841 47.996C69.174 48.0766 69.0089 47.9605 68.8888 47.6476L66.5224 41.4829C65.9993 40.12 65.5165 39.3159 65.0743 39.0708C64.6294 38.8187 64.1736 38.7823 63.7068 38.9615C63.1 39.1944 62.7443 39.6421 62.6398 40.3045C62.5325 40.96 62.7299 41.9415 63.2317 43.2488L65.4299 48.9753C65.55 49.2883 65.5051 49.485 65.295 49.5657L64.6928 49.7968Z" fill="black"/>
<path d="M52.9275 42.3337C52.7127 42.0253 52.7103 41.8307 52.9204 41.7501L53.6836 41.4571C53.8376 41.398 53.9947 41.4933 54.1548 41.743L58.2679 48.0629C58.3819 48.2345 58.5584 48.5059 58.7973 48.8769C59.0381 49.2393 59.2372 49.5697 59.3947 49.8683L59.4087 49.8629C59.3259 49.5357 59.2622 49.237 59.2174 48.967C59.1747 48.6882 59.1149 48.2883 59.0381 47.7672L57.8798 40.3131C57.8364 40.0186 57.8894 39.8427 58.0387 39.7853L58.8019 39.4923C59.012 39.4117 59.1404 39.5579 59.1872 39.9309L60.5913 50.6417C60.8553 52.6547 60.9537 54.0969 60.8865 54.9684C60.822 55.8469 60.442 56.4196 59.7465 56.6866C59.3824 56.8263 59.0623 56.8575 58.7862 56.7799C58.6615 56.748 58.5874 56.6528 58.5641 56.4942L58.4218 55.5794C58.3984 55.4209 58.4454 55.3549 58.5628 55.3817C58.7995 55.4264 59.0066 55.4148 59.184 55.3467C59.5107 55.2213 59.6754 54.8549 59.6779 54.2475C59.6831 53.6472 59.6449 53.0594 59.5634 52.4843L59.4672 51.8152L52.9275 42.3337Z" fill="black"/>
<path d="M50.1564 54.204C49.9343 54.0579 49.8319 53.8818 49.8491 53.6757L49.912 52.8976C49.9346 52.6495 50.0903 52.6017 50.3791 52.7542C50.7746 52.9614 51.1765 53.0944 51.5846 53.1531C51.9975 53.21 52.4209 53.1552 52.8551 52.9886C53.1118 52.89 53.3232 52.757 53.4892 52.5896C53.6525 52.4152 53.7595 52.1706 53.8101 51.856C53.8654 51.5396 53.8103 51.1658 53.6448 50.7347C53.5487 50.4843 53.4206 50.2622 53.2605 50.0684C53.105 49.8727 52.9249 49.7384 52.7202 49.6654C52.5174 49.5837 52.329 49.5323 52.1549 49.5114C51.8662 49.4706 51.5867 49.4542 51.3166 49.4622C51.0485 49.4614 50.6884 49.444 50.2362 49.4102C49.9341 49.3905 49.6273 49.3168 49.3158 49.189C49.0017 49.0543 48.6862 48.8323 48.3693 48.5231C48.0571 48.2121 47.7743 47.7263 47.5207 47.0657C47.2617 46.3911 47.1766 45.7576 47.2651 45.1651C47.3537 44.5726 47.5723 44.1097 47.921 43.7764C48.267 43.4361 48.6361 43.1907 49.0282 43.0402C49.607 42.818 50.1102 42.7406 50.5377 42.8079C50.9672 42.8664 51.3624 42.982 51.7232 43.1546C51.934 43.2572 52.0257 43.4334 51.9984 43.6833L51.9236 44.4301C51.903 44.6694 51.7486 44.7206 51.4605 44.5839C51.2184 44.4694 50.9079 44.3931 50.5291 44.355C50.1503 44.3169 49.8418 44.3436 49.6038 44.435C49.3097 44.5478 49.0763 44.6933 48.9036 44.8713C48.7309 45.0492 48.6246 45.2815 48.5847 45.5681C48.5447 45.8548 48.5862 46.158 48.7089 46.4779C48.8024 46.7213 48.9121 46.9305 49.0382 47.1055C49.1616 47.2735 49.3241 47.4106 49.5255 47.5168C49.7269 47.623 49.9724 47.6764 50.2618 47.677C50.7126 47.6794 51.1231 47.6814 51.4932 47.683C51.868 47.6827 52.2209 47.7228 52.5517 47.8033C52.9832 47.9089 53.3447 48.0693 53.6362 48.2846C53.9323 48.498 54.1795 48.7582 54.3776 49.0651C54.5731 49.365 54.7483 49.7167 54.9031 50.12C55.1887 50.8641 55.2809 51.5507 55.1797 52.18C55.0831 52.8075 54.8862 53.278 54.5888 53.5916C54.2888 53.8983 53.882 54.1502 53.3686 54.3473C52.6731 54.6142 52.0195 54.6976 51.4079 54.5972C50.7983 54.4881 50.3812 54.3571 50.1564 54.204Z" fill="black"/>
<path d="M44.9121 62.1777C44.7021 62.2584 44.537 62.1422 44.4169 61.8293L38.9714 47.6434C38.8513 47.3304 38.8962 47.1337 39.1063 47.053L39.6945 46.8272C39.8625 46.7627 40.0136 46.8843 40.1477 47.1918L40.51 48.0102L40.524 48.0048C40.6046 47.4473 40.7552 46.9746 40.9759 46.5867C41.1965 46.1988 41.5752 45.9018 42.112 45.6958C43.0456 45.3374 43.974 45.6353 44.8973 46.5893C45.8178 47.5365 46.5651 48.7576 47.139 50.2527C47.7129 51.7478 47.976 53.1587 47.9283 54.4855C47.878 55.8053 47.386 56.6444 46.4524 57.0028C45.9156 57.2089 45.4354 57.2416 45.0119 57.101C44.5884 56.9604 44.1602 56.7099 43.7273 56.3494L43.7133 56.3548C43.8027 56.5599 43.8888 56.7702 43.9715 56.9857L45.6492 61.3563C45.7693 61.6692 45.7243 61.866 45.5143 61.9466L44.9121 62.1777ZM42.5861 53.3767C42.9865 54.4197 43.4512 55.135 43.9801 55.5223C44.5111 55.901 45.0286 55.9935 45.5328 55.8C46.2423 55.5276 46.5919 54.9386 46.5817 54.033C46.5762 53.1256 46.3278 52.0321 45.8366 50.7526C45.3455 49.4731 44.7984 48.4943 44.1953 47.8162C43.5969 47.1364 42.943 46.9326 42.2335 47.205C41.7293 47.3985 41.408 47.8171 41.2694 48.4607C41.1329 49.0955 41.2648 49.9345 41.6652 50.9776L42.5861 53.3767Z" fill="black"/>
<path d="M33.9964 58.2294C33.5212 56.9916 33.5603 55.9354 34.1136 55.0608C34.6716 54.1844 35.7045 53.4009 37.2122 52.7105L36.9399 52.0012C36.689 51.3475 36.3724 50.8228 35.9902 50.427C35.6099 50.0224 35.1257 49.933 34.5376 50.1588C34.1641 50.3021 33.8868 50.4724 33.7054 50.6697C33.5214 50.86 33.3707 51.0814 33.2534 51.3339C33.1381 51.5776 33.0498 51.8708 32.9885 52.2135C32.9426 52.4705 32.8275 52.5266 32.6434 52.3818L32.0391 51.8958C31.8697 51.7613 31.8246 51.5393 31.9039 51.2296C32.0178 50.7869 32.1581 50.4339 32.3248 50.1704C32.4914 49.907 32.7248 49.6499 33.0248 49.3991C33.3269 49.1395 33.6576 48.9407 34.0171 48.8028C34.9926 48.4283 35.8323 48.5368 36.536 49.1283C37.2371 49.7129 37.8372 50.6554 38.3364 51.9558L40.8189 58.4229C40.939 58.7358 40.894 58.9326 40.684 59.0133L40.0538 59.2552C39.8718 59.325 39.7207 59.2035 39.6006 58.8906L39.4044 58.3795L39.3904 58.3849C39.1871 58.9576 38.9415 59.3989 38.6534 59.7089C38.3674 60.0102 38.0073 60.2442 37.5732 60.4108C36.8077 60.7047 36.1131 60.6602 35.4894 60.2772C34.8678 59.8856 34.3701 59.2029 33.9964 58.2294ZM35.2867 57.7819C35.4522 58.2131 35.6464 58.5375 35.8692 58.7551C36.0893 58.9659 36.3214 59.0682 36.5655 59.0623C36.8069 59.0494 37.0443 58.9982 37.2777 58.9086C37.6372 58.7706 37.9579 58.5877 38.2399 58.3597C38.522 58.1318 38.748 57.7299 38.9179 57.154L37.7367 54.0769C36.8338 54.5432 36.211 54.9299 35.8683 55.2369C35.5229 55.5371 35.2949 55.9198 35.1844 56.3851C35.0711 56.8435 35.1052 57.3091 35.2867 57.7819Z" fill="black"/>
<path d="M24.083 65.386C23.8729 65.4666 23.7078 65.3504 23.5877 65.0375L19.7439 55.0239C19.6237 54.711 19.6687 54.5142 19.8788 54.4336L20.4669 54.2078C20.677 54.1272 20.8421 54.2433 20.9622 54.5562L21.2825 55.3907L21.3105 55.38C21.4217 54.7628 21.608 54.2644 21.8693 53.8849C22.1307 53.5053 22.4247 53.2528 22.7515 53.1274C23.3536 52.8962 23.9025 52.9449 24.3981 53.2732C24.8957 53.5928 25.2779 53.9607 25.5448 54.3769L25.5728 54.3661C25.6106 53.6974 25.7509 53.093 25.9935 52.5531C26.2361 52.0132 26.5791 51.6581 27.0226 51.4879C27.7648 51.203 28.4624 51.3461 29.1155 51.9172C29.7658 52.4813 30.3286 53.3823 30.8037 54.6201L33.3623 61.2854C33.4824 61.5983 33.4375 61.7951 33.2274 61.8757L32.6252 62.1069C32.4152 62.1875 32.2501 62.0714 32.13 61.7584L29.8036 55.6981C29.2804 54.3352 28.8284 53.4994 28.4475 53.1908C28.064 52.8753 27.6341 52.8089 27.158 52.9917C26.6912 53.1709 26.4162 53.6195 26.3331 54.3376C26.2472 55.0487 26.4338 56.0023 26.893 57.1984L29.0912 62.9249C29.2113 63.2379 29.1663 63.4346 28.9563 63.5153L28.3541 63.7464C28.1441 63.8271 27.979 63.7109 27.8588 63.398L25.5325 57.3377C25.0093 55.9747 24.5573 55.1389 24.1764 54.8304C23.7929 54.5148 23.363 54.4485 22.8869 54.6312C22.4201 54.8104 22.1344 55.2312 22.0299 55.8937C21.9227 56.5492 22.12 57.5306 22.6218 58.8379L24.82 64.5645C24.9402 64.8774 24.8952 65.0742 24.6851 65.1548L24.083 65.386Z" fill="black"/>
<path d="M20.8622 66.6223C20.6522 66.7029 20.4871 66.5868 20.367 66.2739L16.5231 56.2602C16.403 55.9473 16.4479 55.7505 16.658 55.6699L17.2602 55.4388C17.4702 55.3581 17.6353 55.4743 17.7554 55.7872L21.5993 65.8008C21.7194 66.1137 21.6744 66.3105 21.4644 66.3911L20.8622 66.6223ZM15.8972 53.6881C15.6872 53.7687 15.5221 53.6525 15.402 53.3396L15.0576 52.4426C14.9375 52.1296 14.9825 51.9329 15.1925 51.8522L15.7947 51.6211C16.0047 51.5404 16.1698 51.6566 16.2899 51.9695L16.6343 52.8666C16.7544 53.1795 16.7094 53.3763 16.4994 53.4569L15.8972 53.6881Z" fill="black"/>
<path d="M39.6798 65.7409L21.7598 72.1409V74.7009L39.6798 68.3009V65.7409Z" fill="#E7E8FD"/>
<path d="M72.9598 54.2209C65.2798 57.2076 50.9438 63.1809 49.9198 63.1809V65.7409L72.9598 56.7809V54.2209Z" fill="#E7E8FD"/>
<path d="M39.6798 65.7409L21.7598 72.1409V74.7009L39.6798 68.3009V65.7409Z" stroke="black" stroke-width="0.3"/>
<path d="M72.9598 54.2209C65.2798 57.2076 50.9438 63.1809 49.9198 63.1809V65.7409L72.9598 56.7809V54.2209Z" stroke="black" stroke-width="0.3"/>
<path d="M26.2374 82.729H27.9244V77.2449L26.0607 78.4499L25.6001 77.6626L28.1547 75.9809H29.0759V82.729H30.7201V83.6609H26.2374V82.729Z" fill="black"/>
<path d="M60.1602 73.7819C61.3748 72.9086 62.2913 72.2254 62.9096 71.7325C63.5279 71.2395 63.9993 70.787 64.3238 70.375C64.6483 69.963 64.8105 69.5668 64.8105 69.1865C64.8105 68.8027 64.6483 68.4999 64.3238 68.278C63.9993 68.0527 63.5542 67.94 62.9885 67.94C62.7737 67.94 62.561 67.9558 62.3505 67.9875C62.14 68.0192 61.9668 68.0527 61.8309 68.0879C61.6949 68.1196 61.6094 68.1425 61.5743 68.1566L61.4428 69.1865H60.3641L60.2983 67.4541C60.3772 67.4329 60.557 67.3889 60.8376 67.322C61.1227 67.2516 61.4691 67.1847 61.8769 67.1213C62.2847 67.0544 62.6772 67.0209 63.0543 67.0209C64.1155 67.0209 64.9201 67.1812 65.4683 67.5016C66.0164 67.822 66.2905 68.3467 66.2905 69.0756C66.2905 69.5369 66.1414 69.9947 65.8432 70.4489C65.5494 70.9032 65.0999 71.3909 64.4948 71.912C63.894 72.4297 63.0784 73.053 62.0479 73.7819H66.5602V74.7009H60.1602V73.7819Z" fill="black"/>
<path d="M57.5997 70.8609L51.6672 74.1159L51.4122 72.6409C44.9855 74.3751 36.5628 77.6144 33.5647 79.1134C33.2487 79.2707 32.8651 79.1417 32.7072 78.8259C32.5499 78.51 32.6789 78.1263 32.9947 77.9684C36.098 76.417 44.6788 73.1197 51.1922 71.3734L50.9284 69.8409L57.5997 70.8609Z" fill="black"/>
</svg>
