<svg width="128" height="128" viewBox="0 0 128 128" fill="none" xmlns="http://www.w3.org/2000/svg">
<path d="M0 6C0 2.68629 2.68629 0 6 0H122C125.314 0 128 2.68629 128 6V122C128 125.314 125.314 128 122 128H6C2.68629 128 0 125.314 0 122V6Z" fill="#5CBDEA"/>
<path d="M36.404 51.3094C39.9354 54.5367 44.145 58.4423 45.7586 59.9624L48.6586 62.722L47.7465 63.6341C47.232 64.1252 42.6482 68.3582 37.5733 73.0121C32.4985 77.6894 27.4937 82.3199 26.4647 83.3022C25.4357 84.3078 24.1495 85.5005 23.6116 85.9916L22.606 86.8569V64.1486C22.606 40.9024 22.606 40.9959 23.4946 39.9903C23.8221 39.6161 24.0559 39.8032 26.9091 42.4927C28.5929 44.0829 32.8726 48.0586 36.404 51.3094Z" fill="white"/>
<path d="M99.3138 38.6105C99.3138 38.7274 98.8928 39.1718 98.4017 39.6161C96.5776 41.1596 83.411 53.2972 82.5924 54.1625C82.1715 54.6069 75.062 61.2253 69.3323 66.4872C66.596 69.013 65.4267 69.738 64.0469 69.738C62.2228 69.738 62.1526 69.6912 52.4472 60.7575C50.5061 58.9802 47.9804 56.5947 46.811 55.4956C43.0458 51.8707 31.6799 41.3935 29.5985 39.6161C29.1074 39.1718 28.6865 38.7274 28.6865 38.6105C28.6865 38.4936 42.7418 38.4 64.0001 38.4C85.2585 38.4 99.3138 38.4936 99.3138 38.6105Z" fill="white"/>
<path d="M55.464 68.8259C60.1647 73.2226 60.8429 73.5968 64.1171 73.5968C67.4613 73.5968 68.1162 73.246 72.6999 68.9428C74.7346 67.0485 76.4885 65.5284 76.6055 65.5752C76.7458 65.5986 78.453 67.1888 80.4175 69.0598C82.3819 70.9307 87.0593 75.2806 90.7777 78.7184C100.764 87.9327 103.874 90.8794 103.874 91.1367C103.874 91.2536 103.5 91.5576 103.056 91.7915C102.284 92.1657 100.039 92.1891 63.7663 92.1423L63.6294 92.142C25.5987 92.0721 25.2945 92.0716 24.547 91.6044L23.7987 91.1367L27.4704 87.6988C29.4816 85.8279 34.7202 80.9635 39.0935 76.9176C43.4668 72.8484 48.0505 68.592 49.2666 67.4227C50.4827 66.2768 51.5351 65.3179 51.6053 65.3179C51.6754 65.3179 53.406 66.8848 55.464 68.8259Z" fill="white"/>
<path d="M104.973 40.762C105.371 41.5104 105.394 43.1007 105.394 64.2187V86.8569L103.898 85.5005C100.483 82.3667 82.7094 65.7856 81.1892 64.3123L79.5522 62.6986L81.7973 60.5471C83.0134 59.3544 87.3867 55.3319 91.4793 51.6134C95.5953 47.8716 100.109 43.7087 101.536 42.3289C102.939 40.9491 104.225 39.85 104.342 39.8734C104.482 39.9201 104.763 40.3177 104.973 40.762Z" fill="white"/>
</svg>
