<svg width="128" height="128" viewBox="0 0 128 128" fill="none" xmlns="http://www.w3.org/2000/svg">
<path d="M6 0.5H122C125.038 0.5 127.5 2.96243 127.5 6V122C127.5 125.038 125.038 127.5 122 127.5H6C2.96243 127.5 0.5 125.038 0.5 122V6C0.5 2.96243 2.96243 0.5 6 0.5Z" fill="#F9FAFB"/>
<path d="M6 0.5H122C125.038 0.5 127.5 2.96243 127.5 6V122C127.5 125.038 125.038 127.5 122 127.5H6C2.96243 127.5 0.5 125.038 0.5 122V6C0.5 2.96243 2.96243 0.5 6 0.5Z" stroke="#E5E7EB"/>
<path d="M63.9999 23.04C86.5874 23.04 104.96 41.4121 104.96 63.9997C104.96 86.5873 86.5874 104.96 63.9998 104.96C58.2101 104.96 52.7012 103.744 47.7077 101.57C47.5556 101.521 47.3899 101.452 47.224 101.352C32.9862 94.9355 23.0396 80.6121 23.0396 64.0003C23.0396 41.4127 41.4122 23.04 63.9999 23.04ZM64.0003 27.7621C45.7047 27.7621 30.5386 41.396 28.1101 59.0342L60.9355 37.2323C62.3403 36.2966 64.0117 36.0544 65.6077 36.5385L65.6837 36.5621C67.7604 37.2274 69.379 38.9932 70.2394 41.231L85.5698 81.093L85.573 81.1013L85.5761 81.1097C86.499 83.6135 86.6846 85.9355 85.7596 87.8461C85.0581 89.297 83.7883 90.3145 82.2001 90.8318L56.0264 99.3467C58.5925 99.9285 61.2602 100.239 63.9999 100.239C83.9789 100.239 100.239 83.9793 100.239 64.0003C100.239 44.0212 83.9793 27.7621 64.0003 27.7621ZM64.2501 41.0614C63.9876 40.979 63.7854 41.0063 63.5507 41.1627L27.7775 64.9223C27.8214 66.6979 27.9968 68.4412 28.2895 70.1446L52.7256 78.5179L61.6609 46.847C62.0117 45.6024 63.2895 44.894 64.5104 45.2L64.5686 45.2154L64.5731 45.2166C65.8306 45.5706 66.5569 46.877 66.2042 48.1291L60.0069 70.0991L77.968 80.0984C79.1066 80.7325 79.5177 82.1719 78.8829 83.3117L78.8798 83.3174L78.8766 83.3229C78.4433 84.0826 77.6484 84.5233 76.8174 84.5233C76.4354 84.5233 76.0374 84.4314 75.67 84.2264L58.6895 74.7737L56.5951 82.2042L56.5937 82.2093L56.5748 82.2716C56.3878 82.8587 55.9775 83.3569 55.4232 83.65L55.4196 83.652L55.4167 83.6536C55.0633 83.8403 54.6816 83.9224 54.3201 83.9224C54.0635 83.9224 53.8042 83.8801 53.5554 83.7937L45.0773 80.8883L41.208 92.1426C43.4683 93.9755 45.9495 95.5407 48.6101 96.7912L80.7397 86.3378L80.7422 86.337C81.2427 86.1753 81.4201 85.9713 81.5102 85.7863C81.7088 85.3705 81.7603 84.4125 81.1526 82.7621L65.8326 42.926C65.4042 41.8133 64.736 41.2157 64.2501 41.0614ZM29.6753 75.614C31.3306 80.4906 33.9998 84.904 37.4308 88.6058L40.6093 79.3596L29.6753 75.614Z" fill="#2E8BCC"/>
</svg>
