<svg width="128" height="128" viewBox="0 0 128 128" fill="none" xmlns="http://www.w3.org/2000/svg">
<path d="M6 0.5H122C125.038 0.5 127.5 2.96243 127.5 6V122C127.5 125.038 125.038 127.5 122 127.5H6C2.96243 127.5 0.5 125.038 0.5 122V6C0.5 2.96243 2.96243 0.5 6 0.5Z" fill="black"/>
<path d="M6 0.5H122C125.038 0.5 127.5 2.96243 127.5 6V122C127.5 125.038 125.038 127.5 122 127.5H6C2.96243 127.5 0.5 125.038 0.5 122V6C0.5 2.96243 2.96243 0.5 6 0.5Z" stroke="#404040"/>
<g clip-path="url(#clip0_2471_975)">
<path d="M97.3008 102.925V24.8448H91.7026V22.9709H99.4736V104.891H91.7026V103.017L97.3008 102.925Z" fill="white"/>
<path d="M49.0649 49.6768V53.6192H49.1774C50.1615 52.1754 51.4601 50.9824 52.9861 50.112C54.4687 49.2851 56.1814 48.8704 58.073 48.8704C59.9135 48.8704 61.6006 49.2288 63.1088 49.9456C64.6297 50.6598 65.7928 51.9194 66.5852 53.7344C67.4492 52.4544 68.62 51.3254 70.1128 50.3552C71.5954 49.3747 73.3592 48.8858 75.3786 48.8858C76.9175 48.8858 78.3439 49.0752 79.6475 49.449C80.9614 49.8278 82.0862 50.4294 83.0217 51.2589C83.9573 52.0858 84.691 53.1686 85.2175 54.5101C85.7416 55.8464 86.0049 57.4541 86.0049 59.3485V78.8813H78.0039V62.3437C78.0039 61.3632 77.9655 60.4416 77.8914 59.5789C77.838 58.793 77.6281 58.025 77.2728 57.321C76.9328 56.6784 76.4139 56.1485 75.78 55.7952C75.123 55.4214 74.2309 55.232 73.0959 55.232C71.9712 55.232 71.0612 55.4496 70.3608 55.8797C69.6655 56.3149 69.121 56.8781 68.7274 57.5744C68.3209 58.3091 68.0525 59.1155 67.94 59.9475C67.8071 60.8358 67.7406 61.7318 67.7406 62.6355V78.8915H59.7397V62.5075C59.7397 61.6422 59.7218 60.7846 59.686 59.9475C59.6569 59.1437 59.4945 58.3526 59.2054 57.6026C58.9294 56.8934 58.4386 56.2918 57.7995 55.8797C57.14 55.4496 56.1737 55.232 54.8854 55.232C54.3793 55.2533 53.8783 55.3395 53.3926 55.488C52.7331 55.6787 52.1196 56.0051 51.5904 56.4454C51.0076 56.9165 50.5117 57.5949 50.0976 58.4781C49.6861 59.3638 49.479 60.521 49.479 61.9597V78.9069H41.478V49.7229L49.0649 49.6768Z" fill="white"/>
<path d="M30.4199 24.9267V103.007H36.018V104.881H28.2471V22.9606H35.9924V24.8346L30.4199 24.9267Z" fill="white"/>
</g>
<defs>
<clipPath id="clip0_2471_975">
<rect width="71.3186" height="81.92" fill="white" transform="translate(28.27 23.04)"/>
</clipPath>
</defs>
</svg>
