<svg width="128" height="128" viewBox="0 0 128 128" fill="none" xmlns="http://www.w3.org/2000/svg">
<path d="M0 6C0 2.68629 2.68629 0 6 0H122C125.314 0 128 2.68629 128 6V122C128 125.314 125.314 128 122 128H6C2.68629 128 0 125.314 0 122V6Z" fill="#1875F0"/>
<g clip-path="url(#clip0_2471_975)">
<path d="M64.2789 23.04C47.0936 22.9197 31.0271 33.7075 25.2133 50.8646C17.9608 72.2944 29.4527 95.5315 50.8645 102.784C72.2943 110.036 95.5314 98.5446 102.784 77.1328C108.68 59.7171 102.198 41.1187 88.0664 30.8506L88.5068 39.5443C95.5442 47.3293 98.3346 58.3578 94.8248 68.7309C89.5845 84.1958 72.3199 92.3315 56.2508 86.889C40.1842 81.449 31.3983 64.5018 36.6386 49.0214C40.1612 38.6355 49.1212 31.5418 59.4943 29.6755L65.093 23.0502C64.8268 23.0374 64.5477 23.0374 64.2661 23.0374L64.2789 23.04ZM76.3186 26.775C76.1727 26.775 76.0242 26.8032 75.8911 26.8544H75.8783C75.7452 26.9235 75.612 27.0003 75.5071 27.1078C75.0156 27.5891 73.2671 29.9366 73.2671 29.9366L69.468 34.6394L65.0264 40.0538L57.3976 49.536C57.3976 49.536 53.9058 53.8957 54.6815 59.2666C55.452 64.6426 59.4405 67.2538 62.5458 68.3085C65.6383 69.3453 70.3999 69.6934 74.2808 65.8944C78.1592 62.1056 78.0261 56.5069 78.0261 56.5069L77.7317 44.3597L77.4936 37.3581L77.3324 31.3062C77.3324 31.3062 77.3605 28.3853 77.2684 27.6915C77.2402 27.5712 77.1992 27.4381 77.148 27.3331L77.1199 27.2922L77.1071 27.2512C76.933 26.9722 76.6386 26.7878 76.3186 26.7725V26.775Z" fill="white"/>
</g>
<defs>
<clipPath id="clip0_2471_975">
<rect width="81.92" height="81.92" fill="white" transform="translate(23.04 23.04)"/>
</clipPath>
</defs>
</svg>
