<svg width="128" height="128" viewBox="0 0 128 128" fill="none" xmlns="http://www.w3.org/2000/svg">
<path d="M0 6C0 2.68629 2.68629 0 6 0H122C125.314 0 128 2.68629 128 6V122C128 125.314 125.314 128 122 128H6C2.68629 128 0 125.314 0 122V6Z" fill="#059669"/>
<g clip-path="url(#clip0_2471_1188)">
<path d="M83.6733 76.692C79.8303 76.695 76.0249 75.9363 72.4769 74.4597C68.929 72.9832 65.7088 70.818 63.0027 68.0895C58.7318 63.8362 52.9497 61.4481 46.9221 61.4481C40.8946 61.4481 35.1125 63.8362 30.8416 68.0895L30.2871 68.644L23.04 61.3892L23.5868 60.8347C29.7817 54.657 38.1734 51.1878 46.9221 51.1878C55.6709 51.1878 64.0626 54.657 70.2574 60.8347C72.0216 62.6035 74.1174 64.0069 76.4249 64.9644C78.7323 65.9219 81.2059 66.4148 83.7041 66.4148C86.2023 66.4148 88.676 65.9219 90.9834 64.9644C93.2908 64.0069 95.3866 62.6035 97.1508 60.8347L97.6976 60.2802L104.96 67.5273L104.406 68.0818C101.693 70.8194 98.4632 72.9905 94.904 74.4687C91.3448 75.9468 87.5272 76.7026 83.6733 76.692Z" fill="white"/>
</g>
<defs>
<clipPath id="clip0_2471_1188">
<rect width="81.92" height="81.92" fill="white" transform="translate(23.04 23.04)"/>
</clipPath>
</defs>
</svg>
