<svg width="128" height="128" viewBox="0 0 128 128" fill="none" xmlns="http://www.w3.org/2000/svg">
<path d="M0 6C0 2.68629 2.68629 0 6 0H122C125.314 0 128 2.68629 128 6V122C128 125.314 125.314 128 122 128H6C2.68629 128 0 125.314 0 122V6Z" fill="#0082C9"/>
<g clip-path="url(#clip0_2471_975)">
<path fill-rule="evenodd" clip-rule="evenodd" d="M64 45.8818C72.5818 45.8818 79.8071 51.6881 81.9626 59.5865C83.8413 55.3966 88.0489 52.478 92.938 52.478C99.5775 52.478 104.96 57.8604 104.96 64.5C104.96 71.1395 99.5775 76.522 92.938 76.522C88.0488 76.522 83.8413 73.6033 81.9626 69.4132C79.8072 77.3117 72.5819 83.1182 64 83.1182C55.4182 83.1182 48.1927 77.3118 46.0372 69.4132C44.1586 73.6032 39.9513 76.522 35.0621 76.522C28.4225 76.522 23.04 71.1395 23.04 64.5C23.04 57.8604 28.4225 52.478 35.0621 52.478C39.9512 52.478 44.1586 55.3966 46.0372 59.5865C48.1927 51.6881 55.4183 45.8818 64 45.8818ZM64 52.9035C57.5955 52.9035 52.4036 58.0955 52.4036 64.5C52.4036 70.9045 57.5955 76.0965 64 76.0965C70.4045 76.0965 75.5965 70.9045 75.5965 64.5C75.5965 58.0955 70.4045 52.9035 64 52.9035ZM35.0621 59.4997C32.3005 59.4997 30.0618 61.7384 30.0618 64.5C30.0618 67.2615 32.3005 69.5003 35.0621 69.5003C37.8236 69.5003 40.0624 67.2615 40.0624 64.5C40.0624 61.7384 37.8237 59.4997 35.0621 59.4997ZM92.938 59.4997C90.1765 59.4997 87.9377 61.7384 87.9377 64.5C87.9377 67.2615 90.1765 69.5003 92.938 69.5003C95.6995 69.5003 97.9383 67.2615 97.9383 64.5C97.9383 61.7384 95.6995 59.4997 92.938 59.4997Z" fill="white"/>
</g>
<defs>
<clipPath id="clip0_2471_975">
<rect width="81.92" height="37.2364" fill="white" transform="translate(23.04 45.8818)"/>
</clipPath>
</defs>
</svg>
