<svg width="128" height="128" viewBox="0 0 128 128" fill="none" xmlns="http://www.w3.org/2000/svg">
<path d="M6 0.5H122C125.038 0.5 127.5 2.96243 127.5 6V122C127.5 125.038 125.038 127.5 122 127.5H6C2.96243 127.5 0.5 125.038 0.5 122V6C0.5 2.96243 2.96243 0.5 6 0.5Z" fill="#F9FAFB"/>
<path d="M6 0.5H122C125.038 0.5 127.5 2.96243 127.5 6V122C127.5 125.038 125.038 127.5 122 127.5H6C2.96243 127.5 0.5 125.038 0.5 122V6C0.5 2.96243 2.96243 0.5 6 0.5Z" stroke="#E5E7EB"/>
<path d="M95.7586 25.6V30.9528H39.5456C36.4796 30.9528 34.2235 31.7211 32.7712 33.2457C31.3189 34.7705 30.5974 37.1117 30.5974 40.2882V66.3061C30.5974 67.2818 30.8161 68.0113 31.2622 68.4927C31.7083 68.961 32.402 69.1924 33.3438 69.1924H83.4086C84.8994 69.1924 85.9434 69.5288 86.5398 70.207C87.1858 70.8852 87.5019 72.0358 87.5019 73.6531V77.3441C87.5019 78.9566 87.1839 80.0965 86.5398 80.7727C85.9452 81.4489 84.8949 81.7873 83.4086 81.7873H32.2418V76.3295L23.2329 88.0848L32.2418 99.84V94.3822H89.0763C92.9553 94.3822 95.8278 93.4249 97.6653 91.4959C99.5027 89.5669 100.412 86.5933 100.412 82.5745V67.2682C100.412 63.569 99.5665 60.8221 97.8752 59.0465C96.1839 57.2216 93.5564 56.3176 89.9859 56.3176H47.6006C46.1636 56.3176 45.1135 55.9793 44.4693 55.303C43.8252 54.6268 43.5072 53.487 43.5072 51.8744V48.2009C43.5072 46.5883 43.8252 45.431 44.4693 44.7548C45.1135 44.0786 46.1636 43.7402 47.6006 43.7402H95.7586V49.093L104.767 37.3553L95.7586 25.6Z" fill="#E2001A"/>
</svg>
