<svg width="128" height="128" viewBox="0 0 128 128" fill="none" xmlns="http://www.w3.org/2000/svg">
<path d="M6 0.5H122C125.038 0.5 127.5 2.96243 127.5 6V122C127.5 125.038 125.038 127.5 122 127.5H6C2.96243 127.5 0.5 125.038 0.5 122V6C0.5 2.96243 2.96243 0.5 6 0.5Z" fill="#F9FAFB"/>
<path d="M6 0.5H122C125.038 0.5 127.5 2.96243 127.5 6V122C127.5 125.038 125.038 127.5 122 127.5H6C2.96243 127.5 0.5 125.038 0.5 122V6C0.5 2.96243 2.96243 0.5 6 0.5Z" stroke="#E5E7EB"/>
<path d="M77.239 66.1583L102.706 51.4127L98.6925 44.418L68.8521 61.7078L77.239 66.1583Z" fill="#3760AA"/>
<path d="M72.5046 24.0246L64.4703 24.0168L64.4468 58.6358L72.481 53.5552L72.5046 24.0246Z" fill="#4199D5"/>
<path d="M59.242 51.3969L33.7989 36.6119L29.7778 43.5988L59.6026 60.928L59.242 51.3969Z" fill="#7BB929"/>
<path d="M50.7611 61.8417L25.2944 76.5873L29.3076 83.582L59.1559 66.2922L50.7611 61.8417Z" fill="#FCC10C"/>
<path d="M55.4951 103.975L63.5294 103.983L63.5529 69.3642L55.5186 74.4448L55.4951 103.975Z" fill="#ED6A2C"/>
<path d="M68.758 76.6031L94.2011 91.3881L98.2222 84.4012L68.4053 67.072L68.758 76.6031Z" fill="#E22F88"/>
</svg>
